<?xml version="1.0" encoding="UTF-8"?>
<svg version="1.1" xmlns="http://www.w3.org/2000/svg" width="687" height="693">
<path d="M0 0 C1.58118118 -0.01073296 1.58118118 -0.01073296 3.19430542 -0.02168274 C4.92117081 -0.02571609 4.92117081 -0.02571609 6.68292236 -0.02983093 C7.89960602 -0.03640213 9.11628967 -0.04297333 10.36984253 -0.04974365 C14.40031176 -0.06947085 18.43074123 -0.0811415 22.46124268 -0.09111023 C23.85159576 -0.09515965 25.24194865 -0.09927662 26.63230133 -0.10346031 C33.16554102 -0.1225013 39.6987695 -0.13673453 46.23203158 -0.14507228 C53.76079165 -0.15484052 61.28925738 -0.18115351 68.81791377 -0.22157317 C74.64567455 -0.25178203 80.47335118 -0.26654566 86.30118871 -0.26985329 C89.77795953 -0.27219837 93.25441552 -0.28108737 96.73110199 -0.30631447 C100.61357432 -0.33403198 104.49566252 -0.32974945 108.37823486 -0.32279968 C109.52138153 -0.33560974 110.6645282 -0.3484198 111.84231567 -0.36161804 C119.03088612 -0.31476605 124.88754526 0.51650617 130.30680466 5.55915356 C134.85996359 10.67561841 136.20997323 15.18353486 136.04327393 21.87373352 C135.21049783 29.33028256 130.79716178 34.49187325 125.30108643 39.14717102 C120.03692888 43.72148484 115.18300247 48.68332626 110.28936768 53.64717102 C104.95538135 59.05768512 99.62891986 64.35889933 93.85772705 69.3014679 C89.47470687 73.21266154 85.41191442 77.46547726 81.28936768 81.64717102 C75.95538135 87.05768512 70.62891986 92.35889933 64.85772705 97.3014679 C60.47470687 101.21266154 56.41191442 105.46547726 52.28936768 109.64717102 C46.95538135 115.05768512 41.62891986 120.35889933 35.85772705 125.3014679 C31.47470687 129.21266154 27.41191442 133.46547726 23.28936768 137.64717102 C17.95538135 143.05768512 12.62891986 148.35889933 6.85772705 153.3014679 C2.47470687 157.21266154 -1.58808558 161.46547726 -5.71063232 165.64717102 C-15.727757 175.80801342 -15.727757 175.80801342 -20.17938232 179.61592102 C-25.48120273 184.15650938 -30.31369619 189.18032621 -35.21063232 194.14717102 C-40.70896718 199.72400012 -46.20456016 205.22490716 -52.15985107 210.31904602 C-56.5385503 214.22234362 -60.59406829 218.47154581 -64.71063232 222.64717102 C-70.04461865 228.05768512 -75.37108014 233.35889933 -81.14227295 238.3014679 C-85.52529313 242.21266154 -89.58808558 246.46547726 -93.71063232 250.64717102 C-99.05368757 256.06688416 -104.38825966 261.38215041 -110.1696167 266.33320618 C-114.36385918 270.06086427 -118.26405343 274.09868696 -122.21063232 278.08467102 C-123.51580811 279.39661438 -123.51580811 279.39661438 -124.84735107 280.73506165 C-126.97076782 282.87014552 -129.0917961 285.00754308 -131.21063232 287.14717102 C-127.85590288 292.27203742 -124.44426266 297.27183795 -120.64813232 302.08467102 C-116.63306826 307.23080425 -112.76809771 312.47084011 -108.96063232 317.77217102 C-102.70152934 326.4849903 -96.35221675 335.12814302 -89.97674561 343.75605774 C-87.0510713 347.71708264 -84.13112927 351.68232819 -81.21063232 355.64717102 C-80.04399342 357.23052481 -78.87732675 358.81385814 -77.71063232 360.39717102 C8.91436768 477.95967102 8.91436768 477.95967102 97.28936768 597.89717102 C97.86694824 598.68100159 98.44452881 599.46483215 99.03961182 600.27241516 C100.20557574 601.85485287 101.37142871 603.43737233 102.53717041 605.01997375 C105.46368211 608.99268989 108.39214302 612.96394096 111.32452393 616.93232727 C117.62560234 625.46382197 123.89237532 634.01765534 130.08184814 642.63056946 C132.68656709 646.25194051 135.30836608 649.85761962 137.97686768 653.43232727 C138.73544067 654.45181458 138.73544067 654.45181458 139.50933838 655.49189758 C140.45631743 656.76167817 141.40767119 658.0282134 142.36431885 659.29072571 C147.22641032 665.82048212 148.7831813 671.08623827 147.78936768 679.14717102 C145.82774007 685.35015562 142.5437289 688.9174703 136.96199608 692.23243999 C134.34060009 693.33611343 132.36951285 693.4015601 129.52731323 693.40786743 C128.46188797 693.41495224 127.39646271 693.42203705 126.29875183 693.42933655 C125.13501541 693.42685913 123.97127899 693.42438171 122.77227783 693.42182922 C121.54262802 693.42694016 120.31297821 693.43205109 119.04606628 693.43731689 C115.67609192 693.44883683 112.30636349 693.45128614 108.93638659 693.4487536 C106.12086536 693.44768329 103.30536678 693.45256886 100.4898504 693.45735902 C93.84553162 693.46845266 87.20126937 693.4688927 80.5569458 693.46284485 C73.70864465 693.45680701 66.86054905 693.46911143 60.01228297 693.49041492 C54.12764288 693.50804586 48.24306813 693.51402985 42.35840261 693.51077718 C38.84600128 693.50896623 35.33374653 693.51158134 31.82136917 693.52549171 C27.90258 693.54043086 23.98405135 693.53108681 20.06524658 693.51948547 C18.90555862 693.52712921 17.74587067 693.53477295 16.55104065 693.54264832 C9.99187595 693.49969291 5.23402054 693.09417652 0.05889893 688.66670227 C-4.84168173 682.92527131 -9.03168834 676.73393283 -13.25750732 670.49092102 C-16.16819205 666.19253932 -19.14754275 661.9456248 -22.14813232 657.70967102 C-22.64804687 657.00310364 -23.14796143 656.29653625 -23.6630249 655.56855774 C-24.67612313 654.13717212 -25.68955065 652.70601951 -26.70330811 651.27510071 C-29.16701114 647.79702561 -31.62684511 644.31622252 -34.08563232 640.83467102 C-34.57539551 640.14123596 -35.06515869 639.4478009 -35.56976318 638.73335266 C-40.06269939 632.36672312 -44.52908083 625.98162821 -48.99481201 619.59590149 C-54.70854126 611.42870383 -60.45623977 603.2857463 -66.21063232 595.14717102 C-73.16483564 585.31167464 -80.09646348 575.46100489 -86.99920654 565.58930969 C-90.72312058 560.26584491 -94.46017411 554.95196352 -98.21063232 549.64717102 C-102.56170835 543.49284157 -106.89152576 537.32397685 -111.21063232 531.14717102 C-117.51761154 522.12844957 -123.85709455 513.13313175 -130.21063232 504.14717102 C-137.16331228 494.31382916 -144.09302401 484.46504278 -150.99481201 474.59590149 C-156.70854126 466.42870383 -162.45623977 458.2857463 -168.21063232 450.14717102 C-175.16483564 440.31167464 -182.09646348 430.46100489 -188.99920654 420.58930969 C-193.19909648 414.58542079 -197.4171649 408.59470923 -201.64959717 402.61372375 C-204.44725176 398.65685363 -207.22982159 394.68995543 -209.99969482 390.71357727 C-210.63778076 389.7983429 -211.2758667 388.88310852 -211.93328857 387.94013977 C-213.17981268 386.15098095 -214.42466697 384.36065733 -215.66766357 382.56904602 C-216.23098389 381.76080383 -216.7943042 380.95256165 -217.37469482 380.11982727 C-217.87436768 379.40061096 -218.37404053 378.68139465 -218.88885498 377.94038391 C-220.22779391 376.03024937 -220.22779391 376.03024937 -222.21063232 374.14717102 C-222.80489014 374.74666565 -223.39914795 375.34616028 -224.01141357 375.96382141 C-226.25329339 378.22291629 -228.49754763 380.47961975 -230.74334717 382.7348175 C-231.70814691 383.70459375 -232.67204128 384.67527172 -233.63494873 385.64692688 C-238.67941198 390.73600817 -243.75217903 395.6897061 -249.19598389 400.34858704 C-254.2680925 404.8767286 -258.9253788 409.87057432 -263.67156982 414.73506165 C-264.48625732 415.56070618 -265.30094482 416.38635071 -266.14031982 417.23701477 C-266.87492432 417.98845764 -267.60952881 418.73990051 -268.36639404 419.51411438 C-270.21063232 421.14717102 -270.21063232 421.14717102 -272.21063232 421.14717102 C-269.97383601 412.19531114 -266.99347434 403.55625224 -263.83563232 394.89717102 C-263.58028717 394.18928436 -263.32494202 393.48139771 -263.06185913 392.75205994 C-260.10555003 384.56721265 -256.99864009 376.48597334 -253.49578857 368.51826477 C-253.19348328 367.82522247 -252.89117798 367.13218018 -252.57971191 366.4181366 C-251.13365289 363.11145821 -249.6609632 359.82194479 -248.13690186 356.55049133 C-244.00522135 347.23941372 -243.58977724 340.60797477 -246.05047607 330.79951477 C-253.40637371 312.60610247 -263.60593751 295.87604737 -274.56219482 279.65107727 C-275.2093042 278.68041321 -275.85641357 277.70974915 -276.52313232 276.70967102 C-277.07614014 275.90658508 -277.62914795 275.10349915 -278.19891357 274.27607727 C-279.21063232 272.14717102 -279.21063232 272.14717102 -279.03836894 270.30203921 C-277.91048995 267.36580259 -276.20243394 265.76408938 -273.97856522 263.5403738 C-273.06004123 262.61464327 -272.14151724 261.68891274 -271.1951592 260.73512977 C-270.1640954 259.71124358 -269.13289142 258.68749853 -268.1015625 257.66387939 C-267.01467693 256.57425466 -265.92844787 255.48397473 -264.84282184 254.39309508 C-261.85145975 251.39111624 -258.85077436 248.39860919 -255.84851265 245.40753639 C-252.61465611 242.18250139 -249.38942887 238.94885697 -246.16311646 235.71627808 C-239.83850004 229.38215918 -233.50584718 223.05613362 -227.17041257 216.73283713 C-219.79631646 209.37234453 -212.42983889 202.00424701 -205.06360063 194.63589186 C-191.92096236 181.4900615 -178.77090064 168.35168166 -165.61688232 155.21723938 C-152.8471246 142.46648091 -140.08333733 129.70978371 -127.3258667 116.94673157 C-113.44288577 103.05769469 -99.55679769 89.17177891 -85.66510463 75.29145533 C-84.18411236 73.81167038 -82.70312075 72.33188476 -81.22212982 70.85209846 C-80.49340326 70.12397544 -79.7646767 69.39585242 -79.01386751 68.64566506 C-73.87438105 63.51006064 -68.73703704 58.37231898 -63.60044098 53.23382378 C-57.34088441 46.97214641 -51.07767435 40.71415036 -44.80980113 34.46079748 C-41.61079873 31.26904578 -38.41340967 28.07572128 -35.22031021 24.8780632 C-32.29824306 21.95192589 -29.37161196 19.03043631 -26.44123873 16.1126178 C-25.38090092 15.05521288 -24.32224818 13.99611501 -23.26544324 12.93517923 C-21.83025565 11.49489128 -20.38832432 10.06133258 -18.946064 8.6281271 C-18.14653533 7.82946521 -17.34700667 7.03080333 -16.52324986 6.20793957 C-11.27589838 1.53203587 -6.89343786 0.03219245 0 0 Z " fill="#2D488E" transform="translate(539.2106323242188,-0.1471710205078125)"/>
<path d="M0 0 C8.67960203 5.08060639 12.79993843 18.24918358 17.125 27 C17.8531365 28.46633416 18.5816499 29.93248122 19.31054688 31.3984375 C20.76177073 34.31842198 22.21163219 37.23907568 23.66015625 40.16040039 C24.3775732 41.60694895 25.09502098 43.05348222 25.8125 44.5 C26.16675049 45.21429169 26.52100098 45.92858337 26.88598633 46.66452026 C43.86451185 80.8676722 62.74580581 116.1196313 97.8125 134.5 C97.64897952 138.5226037 97.25097597 142.49841302 96.8125 146.5 C96.7417627 147.27682129 96.67102539 148.05364258 96.59814453 148.85400391 C94.99958802 164.86761387 94.99958802 164.86761387 89.78515625 169.87890625 C86.86164117 172.2590988 83.73313036 174.30673226 80.55615234 176.33056641 C66.5733173 185.70858095 58.12914028 202.04085977 54.20703125 217.95703125 C52.44620193 229.30653506 53.32313995 240.14007326 60.0625 249.6875 C63.68907863 252.07774501 66.63584393 252.18444353 70.8125 251.5 C74.3423495 250.12386275 77.54339954 248.27957799 80.8125 246.375 C81.75150146 245.84600098 82.69050293 245.31700195 83.65795898 244.77197266 C86.72249482 243.03631975 89.76927477 241.27273421 92.8125 239.5 C93.89547363 238.86964844 94.97844727 238.23929688 96.09423828 237.58984375 C102.53453996 233.83493054 102.53453996 233.83493054 108.95507812 230.04638672 C109.90962891 229.48193848 110.86417969 228.91749023 111.84765625 228.3359375 C112.6869165 227.83626465 113.52617676 227.3365918 114.39086914 226.82177734 C116.81158846 225.50049754 119.24651887 224.50227986 121.8125 223.5 C121.8825793 252.17663757 121.93548294 280.85326231 121.96793652 309.52996826 C121.98340576 322.84504812 122.00449643 336.16005189 122.03881836 349.47509766 C122.06871886 361.08040178 122.08807459 372.68566737 122.09476548 384.29100895 C122.09867661 390.43600802 122.10786969 396.58089685 122.12969017 402.7258606 C122.15006546 408.51075461 122.15633162 414.29549305 122.15182304 420.08041954 C122.15264777 422.20241835 122.1586071 424.3244224 122.17011642 426.44639015 C122.18507667 429.34710011 122.18144055 432.24722529 122.17326355 435.14794922 C122.18200207 435.98454606 122.1907406 436.8211429 122.19974393 437.68309116 C122.14830298 444.45007519 120.92184255 450.00209435 116.4375 455.3125 C110.55134956 460.21762537 106.6836935 460.94419392 99.19213867 460.91992188 C98.22890182 460.92839142 97.26566498 460.93686096 96.27323914 460.94558716 C93.09218095 460.96896613 89.91160633 460.96997894 86.73046875 460.96875 C84.51475328 460.97585197 82.29903966 460.98355102 80.08332825 460.99182129 C75.43888234 461.00526888 70.79460641 461.00683398 66.15014648 461.00097656 C60.20831638 460.99508602 54.26730492 461.02564478 48.32563305 461.06609344 C43.7487196 461.09198949 39.17200262 461.09484598 34.59502602 461.09120178 C32.40503193 461.09289181 30.21502865 461.102523 28.02510643 461.12034607 C24.95653514 461.14256843 21.88961228 461.13281581 18.82104492 461.11523438 C17.9225885 461.12849762 17.02413208 461.14176086 16.09844971 461.15542603 C9.86701945 461.0727853 5.61148203 459.53968043 0.8125 455.5 C-3.40770295 450.0894834 -4.31136163 446.26201371 -4.39523315 439.50038147 C-4.40525993 438.78349622 -4.41528672 438.06661096 -4.42561734 437.32800192 C-4.45777222 434.9193048 -4.48266442 432.51059137 -4.50732422 430.10180664 C-4.5283198 428.37701116 -4.54956611 426.65221873 -4.57104492 424.9274292 C-4.75894911 409.16610681 -4.86165631 393.40374115 -4.94318962 377.64154911 C-5.00471979 365.9958601 -5.10817215 354.35210726 -5.26588428 342.70731646 C-5.37311238 334.51355139 -5.43026433 326.32031772 -5.45132077 318.125884 C-5.4653638 313.23506671 -5.50157737 308.34678499 -5.592556 303.45674324 C-5.67740367 298.84863132 -5.69989626 294.24425928 -5.67619324 289.63546753 C-5.67816024 287.95197627 -5.7021061 286.26833184 -5.75062943 284.58553886 C-6.11659939 271.20207814 -6.11659939 271.20207814 -1.32721329 265.96838188 C0.88316924 263.84501698 3.20751019 261.96690417 5.6488781 260.11791134 C11.0541916 255.97484569 13.8973074 249.78310138 15.30078125 243.21484375 C15.58405073 239.01436196 14.44036758 235.51833524 12.21875 232.03515625 C9.61995893 229.19814266 6.3100613 227.9413778 2.8125 226.5 C1.47455339 225.84264082 0.13985497 225.17849171 -1.1875 224.5 C-0.78917969 223.96632813 -0.39085938 223.43265625 0.01953125 222.8828125 C4.67655987 216.33351191 8.42856423 209.52784507 7.6875 201.25 C5.9970167 194.00507156 3.00587887 189.54951695 -3.1875 185.5 C-10.42538628 182.5794494 -17.5504897 183.70626578 -25.1875 184.5 C-25.00960937 183.24896484 -25.00960937 183.24896484 -24.828125 181.97265625 C-24.10103307 175.62514374 -23.53694916 170.13231176 -26.6484375 164.375 C-30.57279841 159.5940527 -35.75750839 157.85632733 -41.73046875 156.98046875 C-44.88886234 156.72214866 -48.01961175 156.55461876 -51.1875 156.5 C-51.29707031 155.90832031 -51.40664063 155.31664062 -51.51953125 154.70703125 C-52.77141414 148.12997016 -52.77141414 148.12997016 -56.1875 142.5 C-59.31340568 140.53381199 -62.52058038 138.76656108 -66.19360352 138.17919922 C-68.1875 137.5 -68.1875 137.5 -69.27734375 135.91552734 C-69.55707031 135.2292627 -69.83679688 134.54299805 -70.125 133.8359375 C-70.45693359 133.05420166 -70.78886719 132.27246582 -71.13085938 131.46704102 C-71.47955078 130.61166748 -71.82824219 129.75629395 -72.1875 128.875 C-76.10029576 119.68817984 -80.53497751 110.88409413 -85.2890625 102.10498047 C-85.78148437 101.18475098 -86.27390625 100.26452148 -86.78125 99.31640625 C-87.22146484 98.50631104 -87.66167969 97.69621582 -88.11523438 96.86157227 C-90.54103715 91.51895153 -91.13998188 85.65355399 -89.43359375 80.00390625 C-86.28860011 71.7035897 -82.28763789 66.40869077 -74.1875 62.5 C-73.1975 62.5 -72.2075 62.5 -71.1875 62.5 C-50.56759868 107.89617019 -50.56759868 107.89617019 -42.1875 127.5 C-38.57757621 126.84414811 -38.57757621 126.84414811 -35.1875 125.5 C-35.76725529 119.7271927 -37.97576129 114.99258518 -40.34375 109.7734375 C-40.76491089 108.83053864 -41.18607178 107.88763977 -41.61999512 106.91616821 C-42.96930971 103.89947387 -44.32823286 100.887221 -45.6875 97.875 C-46.57094863 95.90393083 -47.45376689 93.93257899 -48.3359375 91.9609375 C-51.8004137 84.2271007 -55.26676371 76.49467575 -58.80541992 68.79443359 C-59.21937012 67.88867584 -59.63332031 66.98291809 -60.05981445 66.04971313 C-60.83681656 64.35087923 -61.61863807 62.6542377 -62.40625 60.96029663 C-66.05590307 52.96119171 -67.5677518 46.58605738 -64.5 38.125 C-61.502982 31.6824307 -57.97894347 27.16617215 -51.1875 24.5 C-46.78293142 23.5402207 -42.48857244 22.89440423 -38.1875 24.5 C-36.82226562 26.28051758 -36.82226562 26.28051758 -35.59375 28.64453125 C-35.12686768 29.53454834 -34.65998535 30.42456543 -34.17895508 31.34155273 C-33.6867749 32.32196533 -33.19459473 33.30237793 -32.6875 34.3125 C-32.16631592 35.33351807 -31.64513184 36.35453613 -31.1081543 37.40649414 C-22.69296816 54.1674446 -15.57258479 71.53044633 -8.9375 89.0625 C-8.55440674 90.07368896 -8.17131348 91.08487793 -7.77661133 92.12670898 C-7.43267334 93.05555908 -7.08873535 93.98440918 -6.734375 94.94140625 C-6.43370117 95.75295166 -6.13302734 96.56449707 -5.82324219 97.40063477 C-5.1875 99.5 -5.1875 99.5 -5.1875 102.5 C-3.87278432 102.21848913 -2.56074233 101.92446661 -1.25 101.625 C-0.51910156 101.46257812 0.21179688 101.30015625 0.96484375 101.1328125 C3.01950294 100.67038477 3.01950294 100.67038477 3.8125 98.5 C2.99408496 96.12323829 2.10745518 93.86181475 1.12109375 91.5546875 C0.82456406 90.84473129 0.52803436 90.13477509 0.22251892 89.40330505 C-0.7602922 87.05707047 -1.75472891 84.71597349 -2.75 82.375 C-3.43379297 80.75300086 -4.11722031 79.13084754 -4.80029297 77.50854492 C-6.91441151 72.49928114 -9.04780899 67.49838649 -11.1875 62.5 C-11.69062714 61.32398224 -11.69062714 61.32398224 -12.20391846 60.12420654 C-14.39238543 55.01401294 -16.59738104 49.91119008 -18.8125 44.8125 C-19.24273972 43.81751495 -19.24273972 43.81751495 -19.68167114 42.8024292 C-22.57805485 36.11644595 -25.47613519 29.5695498 -29.3972168 23.4050293 C-30.42012361 20.93924559 -30.07903051 19.53994103 -29.375 17 C-26.19107924 9.66927921 -22.34930461 3.31962912 -15.1875 -0.5 C-9.87825405 -2.26974865 -5.1133605 -2.19835764 0 0 Z " fill="#2D488E" transform="translate(111.1875,232.5)"/>
<path d="M0 0 C0.91607529 -0.00511093 1.83215057 -0.01022186 2.77598572 -0.01548767 C5.79945438 -0.02936934 8.82269469 -0.02842784 11.84619141 -0.02612305 C13.95220016 -0.03001098 16.05820813 -0.03434585 18.16421509 -0.03910828 C22.57743878 -0.04656759 26.99058248 -0.04628144 31.40380859 -0.04101562 C37.05183635 -0.03522382 42.69953588 -0.05214657 48.34750938 -0.0753603 C52.6970307 -0.09011204 57.04647326 -0.09096732 61.39601517 -0.08785057 C63.4779691 -0.08836313 65.55992752 -0.09358868 67.64185715 -0.10366249 C70.55702614 -0.11603624 73.47155948 -0.10922922 76.38671875 -0.09765625 C77.24201675 -0.10529999 78.09731476 -0.11294373 78.97853088 -0.12081909 C86.48406229 -0.05515435 92.30308515 1.90831358 97.82275391 7.2746582 C101.5703071 13.6990351 101.96239721 18.95370222 101.9069519 26.27685547 C101.90271703 27.65738995 101.90271703 27.65738995 101.89839661 29.06581402 C101.88797708 32.15759937 101.87060104 35.24930932 101.85351562 38.34106445 C101.84508939 40.55547883 101.8372557 42.76989553 101.82997131 44.98431396 C101.81820834 48.52643229 101.80600429 52.06854457 101.79200244 55.61065483 C101.75742104 64.41102344 101.7412769 73.21128578 101.73635864 82.01171875 C101.73562595 83.28969739 101.73489326 84.56767603 101.73413837 85.88438129 C101.7318114 90.48892398 101.72987109 95.09346671 101.72833714 99.69800973 C101.72675033 104.42863797 101.72448109 109.1592652 101.72119141 113.88989258 C101.7207311 114.56424453 101.7202708 115.23859648 101.71979655 115.93338335 C101.71127232 126.82237247 101.66692987 137.71094664 101.61001407 148.59977734 C101.55236026 159.80527704 101.53792141 171.0104013 101.55941784 182.21605587 C101.57001355 188.49712655 101.56138332 194.77679099 101.50509262 201.05764771 C101.45245473 206.98118527 101.45236694 212.90252222 101.49046135 218.82614899 C101.49540627 220.98507025 101.48200091 223.14413532 101.44757652 225.30278778 C101.20661297 241.39631525 105.02472092 251.87378219 113.82275391 265.2746582 C114.53139299 266.42123714 115.23517808 267.570844 115.93200493 268.72463989 C117.49228597 271.297594 119.11236154 273.81962855 120.76025391 276.3371582 C121.95183932 278.18730324 123.14324223 280.03756583 124.33447266 281.88793945 C125.49717135 283.68355234 126.65993012 285.47912632 127.82275391 287.2746582 C151.14807251 323.43204374 151.14807251 323.43204374 153.82275391 335.2746582 C153.99186279 335.9444873 154.16097168 336.61431641 154.33520508 337.30444336 C155.75158925 344.96782722 153.05506989 350.82918129 149.91418457 357.67572021 C148.35393076 361.08288892 146.87179588 364.52402229 145.38134766 367.9621582 C145.07697784 368.65973236 144.77260803 369.35730652 144.45901489 370.07601929 C141.5317411 376.83304073 139.00439478 383.69791664 136.57275391 390.6496582 C136.17451416 391.78338867 135.77627441 392.91711914 135.3659668 394.08520508 C134.17910763 397.47970496 133.00045033 400.87696993 131.82275391 404.2746582 C130.21032474 408.90417816 128.58302089 413.528163 126.94775391 418.1496582 C126.59036133 419.18396973 126.23296875 420.21828125 125.86474609 421.28393555 C121.93232361 432.38866591 117.4688792 436.5738577 107.19775391 442.2121582 C105.44356444 443.198959 103.68938684 444.1857817 101.93595886 445.17393494 C100.11525459 446.19777031 98.29128894 447.21559854 96.46679688 448.23266602 C90.69638957 451.45674587 84.98197443 454.77765582 79.26025391 458.0871582 C77.64219849 459.01612915 77.64219849 459.01612915 75.99145508 459.96386719 C71.15401468 462.74438476 66.33994454 465.54863703 61.58837891 468.47387695 C60.805354 468.95171631 60.0223291 469.42955566 59.21557617 469.921875 C57.79676665 470.79219755 56.38508207 471.67430147 54.98266602 472.57080078 C52.05681911 474.35951979 50.34790389 475.31917423 46.87353516 475.0246582 C45.85839844 474.6534082 45.85839844 474.6534082 44.82275391 474.2746582 C40.55003451 463.08013339 42.23986282 451.10325926 46.82275391 440.2746582 C52.25050439 429.15807557 59.41428712 420.97624166 69.01025391 413.3371582 C69.60459229 412.8639917 70.19893066 412.3908252 70.8112793 411.90332031 C73.299313 409.98437855 75.40205844 408.40129974 78.43261719 407.48901367 C81.0633827 406.48520307 81.0633827 406.48520307 81.81762695 403.74365234 C81.98818604 402.69298584 82.15874512 401.64231934 82.33447266 400.55981445 C82.53492188 399.39772461 82.73537109 398.23563477 82.94189453 397.03833008 C83.12945312 395.81694336 83.31701172 394.59555664 83.51025391 393.3371582 C83.80899414 391.55728516 83.80899414 391.55728516 84.11376953 389.74145508 C84.50845119 387.38501146 84.89439101 385.02708571 85.27124023 382.66772461 C85.93081422 378.60984092 86.6677655 374.56917368 87.42382812 370.52832031 C87.93614972 367.63404819 88.33290806 365.18982477 87.82275391 362.2746582 C84.5097606 359.99882738 80.97681526 358.42099354 77.32275391 356.7746582 C52.10035722 344.22543135 36.74916222 317.06009853 23.82275391 293.2746582 C23.34370605 292.39632324 22.8646582 291.51798828 22.37109375 290.61303711 C17.27327891 281.20580046 12.44285647 271.69310274 7.94384766 261.9855957 C7.61207016 261.27069473 7.28029266 260.55579376 6.9384613 259.81922913 C5.30052042 256.28247934 3.67674783 252.74010428 2.07348633 249.1875 C-4.22283043 235.18429945 -4.22283043 235.18429945 -16.17724609 226.2746582 C-17.5780136 225.87773615 -18.98748268 225.51031616 -20.40380859 225.1730957 C-22.27166016 224.72836914 -22.27166016 224.72836914 -24.17724609 224.2746582 C-24.27069422 197.16264265 -24.34122774 170.05065125 -24.38449478 142.93850708 C-24.40511854 130.34981909 -24.43323575 117.76123118 -24.47900391 105.17260742 C-24.51887716 94.20015553 -24.54468026 83.22777612 -24.55360007 72.25525379 C-24.55881394 66.4455601 -24.5710649 60.63607376 -24.60016632 54.82644653 C-24.62734292 49.35669433 -24.63568643 43.88723465 -24.62967682 38.41742134 C-24.63077604 36.41151909 -24.63871639 34.40560692 -24.65406799 32.39976311 C-24.67403094 29.65653246 -24.66916228 26.91439974 -24.65826416 24.17114258 C-24.66991553 23.38123712 -24.68156689 22.59133165 -24.69357133 21.77748966 C-24.62781475 15.63497969 -23.00167321 10.33758501 -18.76530671 5.74349213 C-12.81007298 0.49765331 -7.57732399 -0.02184473 0 0 Z " fill="#2D488E" transform="translate(131.17724609375,-0.274658203125)"/>
<path d="M0 0 C3.03357945 2.73022151 3.7184718 5.76291462 4.046875 9.80078125 C3.88211302 17.53086416 0.14941347 22.99049075 -5.0859375 28.43359375 C-10.31699922 33.04057438 -16.19402008 36.5349734 -22.11181641 40.18603516 C-27.61288223 43.6410579 -33.02139281 47.23949475 -38.44592285 50.8130188 C-41.64821021 52.92257344 -44.85258005 55.02892618 -48.05859375 57.1328125 C-49.70299438 58.21393311 -49.70299438 58.21393311 -51.38061523 59.31689453 C-56.2754795 62.46212654 -60.24224609 62.62989295 -66 62 C-70.87679522 59.60760989 -73.80955604 56.28431045 -77 52 C-77.98854183 49.0343745 -78.23010095 46.85514307 -78.3125 43.75 C-78.34988281 42.83734375 -78.38726562 41.9246875 -78.42578125 40.984375 C-77.76288621 36.33802815 -75.80408028 32.61111803 -72.31532288 29.49551392 C-70.28176888 28.01118425 -68.207342 26.63313175 -66.0859375 25.27734375 C-64.93141586 24.51448814 -64.93141586 24.51448814 -63.75357056 23.73622131 C-61.30311765 22.1222957 -58.83942664 20.52998419 -56.375 18.9375 C-54.74260461 17.86527841 -53.11108517 16.79172197 -51.48046875 15.71679688 C-15.01926433 -8.24587061 -15.01926433 -8.24587061 0 0 Z " fill="#2D488E" transform="translate(106,427)"/>
<path d="M0 0 C2.23562543 3.57700068 2.50294375 5.42937407 1.65625 9.50805664 C-1.7817514 20.47420674 -13.19037642 26.23174227 -22.25 32.0625 C-23.69881124 33.01230871 -25.14673455 33.9634733 -26.59375 34.91601562 C-30.75028533 37.64324763 -34.93356595 40.32682375 -39.125 43 C-39.76281403 43.41002258 -40.40062805 43.82004517 -41.05776978 44.24249268 C-42.83418907 45.38220098 -44.61684223 46.51130734 -46.40234375 47.63671875 C-47.40515381 48.27182373 -48.40796387 48.90692871 -49.44116211 49.5612793 C-53.48681492 51.73002596 -55.63557412 51.94514229 -60.125 51 C-64.51894566 48.76157485 -67.16285264 46.54392021 -69.125 42 C-70.46289103 36.55924313 -70.47932625 33.22639646 -67.76879883 28.12084961 C-64.2316637 23.55719405 -58.93282513 21.02135485 -54 18.1875 C-52.82311898 17.4938874 -51.64734474 16.79839361 -50.47265625 16.10107422 C-48.7042992 15.05277331 -46.93480032 14.00689368 -45.15985107 12.9697876 C-41.64316329 10.91477602 -38.18251888 8.79444105 -34.7578125 6.58984375 C-33.9652002 6.08364502 -33.17258789 5.57744629 -32.35595703 5.0559082 C-30.92595258 4.13872106 -29.50182771 3.21226211 -28.08544922 2.27416992 C-19.83926598 -2.92102821 -8.62880104 -5.52243267 0 0 Z " fill="#2D488E" transform="translate(76.125,401)"/>
<path d="M0 0 C3.375 2.0625 3.375 2.0625 5 5 C5.30950683 10.36478508 3.20515233 14.37844184 0.14453125 18.62890625 C-4.47987416 23.74186451 -10.21581854 27.33684931 -16 31 C-17.33611328 31.84643066 -17.33611328 31.84643066 -18.69921875 32.70996094 C-21.61873165 34.53908896 -24.55468531 36.3377472 -27.5 38.125 C-28.44359375 38.70604492 -29.3871875 39.28708984 -30.359375 39.88574219 C-31.26171875 40.42102539 -32.1640625 40.95630859 -33.09375 41.5078125 C-34.29547852 42.22928467 -34.29547852 42.22928467 -35.52148438 42.96533203 C-38.55293523 44.23082541 -40.74193454 44.29823492 -44 44 C-47.00685874 42.38092222 -49.2581079 40.94422632 -51.375 38.25 C-52.59886386 33.84409011 -52.84910467 29.84432342 -50.94018555 25.69799805 C-48.3514827 22.09817985 -45.28125651 20.12738577 -41.59375 17.734375 C-40.87264038 17.25550842 -40.15153076 16.77664185 -39.40856934 16.28326416 C-37.88872052 15.27673332 -36.3655681 14.27517526 -34.83935547 13.27832031 C-32.50150863 11.7509856 -30.17389992 10.20899866 -27.84765625 8.6640625 C-26.36775994 7.68663274 -24.88730973 6.71004099 -23.40625 5.734375 C-22.7093103 5.27399841 -22.01237061 4.81362183 -21.29431152 4.33929443 C-14.23777097 -0.26088859 -8.33878245 -0.90684259 0 0 Z " fill="#2D488E" transform="translate(113,468)"/>
<path d="M0 0 C2.6875 1.5625 2.6875 1.5625 4 4 C4.09068501 8.89699037 2.86271117 11.7527804 -0.32543945 15.42089844 C-3.65856724 18.56401996 -7.66301905 20.68380175 -11.625 22.9375 C-13.42543424 23.98142746 -15.22492153 25.02698987 -17.0234375 26.07421875 C-18.31459473 26.82324463 -18.31459473 26.82324463 -19.63183594 27.58740234 C-22.59772141 29.35653774 -25.41014275 31.28609872 -28.25 33.25 C-31.31389844 35.2045559 -33.72826927 36.49627058 -37.375 36.8125 C-41 36 -41 36 -44 33.375 C-46.17817423 29.69933099 -46.79812987 28.16801155 -46 24 C-42.59572661 18.33590981 -36.95355987 15.72961068 -31.375 12.5625 C-29.46597088 11.45993828 -27.55711574 10.35707527 -25.6484375 9.25390625 C-24.70919434 8.71830078 -23.76995117 8.18269531 -22.80224609 7.63085938 C-19.24636373 5.56139656 -15.77348903 3.3669608 -12.3125 1.14282227 C-8.29300973 -0.84358335 -4.33973625 -0.90905222 0 0 Z " fill="#2D488E" transform="translate(46,379)"/>
<path d="M0 0 C2.14375054 4.35629874 4.27976991 8.71626905 6.40869141 13.07983398 C7.13411214 14.5639442 7.8616403 16.04702624 8.59130859 17.52905273 C9.63934271 19.65862954 10.67975937 21.79178061 11.71875 23.92578125 C12.21091003 24.9196862 12.21091003 24.9196862 12.7130127 25.93367004 C14.10980917 28.81932884 15 30.7500046 15 34 C12.40011448 35.50787377 9.79559803 37.00645461 7.1875 38.5 C6.44951172 38.92925781 5.71152344 39.35851562 4.95117188 39.80078125 C4.23896484 40.20683594 3.52675781 40.61289062 2.79296875 41.03125 C1.81106567 41.59682617 1.81106567 41.59682617 0.80932617 42.17382812 C-1 43 -1 43 -4 43 C-12.51820068 15.88599331 -12.51820068 15.88599331 -8.1875 6.5 C-6.09197202 2.71038618 -4.55375358 0 0 0 Z " fill="#2D488E" transform="translate(18,337)"/>
</svg>
