<?xml version="1.0"?>
<svg xmlns="http://www.w3.org/2000/svg" xmlns:xlink="http://www.w3.org/1999/xlink" width="500" zoomAndPan="magnify" viewBox="0 0 375 374.999991" height="500" preserveAspectRatio="xMidYMid meet" version="1.0" style="background-color:transparent;">
  <defs>
    <g/>
    <clipPath id="25841ad4d5">
      <path d="M 32.8125 139.957031 L 100.3125 139.957031 L 100.3125 198.457031 L 32.8125 198.457031 Z M 32.8125 139.957031 " clip-rule="nonzero"/>
    </clipPath>
  </defs>
  <g clip-path="url(#25841ad4d5)">
    <path fill="#87ceeb" d="M 49.234375 139.957031 C 44.34375 139.957031 40.320312 143.988281 40.320312 148.894531 C 40.320312 153.800781 44.34375 157.832031 49.234375 157.832031 C 54.125 157.832031 58.148438 153.800781 58.148438 148.894531 C 58.148438 143.988281 54.125 139.957031 49.234375 139.957031 Z M 49.234375 144.449219 C 51.703125 144.449219 53.65625 146.417969 53.65625 148.894531 C 53.65625 151.371094 51.703125 153.316406 49.234375 153.316406 C 46.765625 153.316406 44.8125 151.371094 44.8125 148.894531 C 44.8125 146.417969 46.765625 144.449219 49.234375 144.449219 Z M 83.820312 147.070312 C 78.929688 147.070312 74.90625 151.101562 74.90625 156.007812 C 74.90625 160.914062 78.929688 164.945312 83.820312 164.945312 C 88.710938 164.945312 92.734375 160.914062 92.734375 156.007812 C 92.734375 151.101562 88.710938 147.070312 83.820312 147.070312 Z M 83.820312 151.585938 C 86.289062 151.585938 88.242188 153.53125 88.242188 156.007812 C 88.242188 158.484375 86.289062 160.429688 83.820312 160.429688 C 81.351562 160.429688 79.398438 158.484375 79.398438 156.007812 C 79.398438 153.53125 81.351562 151.585938 83.820312 151.585938 Z M 49.234375 160.007812 C 40.207031 160.007812 32.832031 167.238281 32.832031 176.179688 L 32.832031 188.976562 C 32.832031 189.277344 32.886719 189.5625 33.003906 189.835938 C 33.117188 190.113281 33.277344 190.355469 33.488281 190.566406 C 33.699219 190.777344 33.941406 190.941406 34.21875 191.054688 C 34.492188 191.167969 34.78125 191.222656 35.078125 191.226562 L 82.207031 191.226562 C 82.507812 191.230469 82.796875 191.175781 83.074219 191.0625 C 83.355469 190.949219 83.601562 190.789062 83.8125 190.578125 C 84.027344 190.367188 84.195312 190.121094 84.308594 189.84375 C 84.425781 189.566406 84.484375 189.277344 84.484375 188.976562 C 84.484375 188.675781 84.425781 188.386719 84.308594 188.109375 C 84.195312 187.832031 84.027344 187.589844 83.8125 187.378906 C 83.601562 187.167969 83.355469 187.003906 83.074219 186.894531 C 82.796875 186.78125 82.507812 186.726562 82.207031 186.730469 L 37.324219 186.730469 L 37.324219 176.179688 C 37.324219 169.691406 42.574219 164.5 49.234375 164.5 C 55.894531 164.5 61.144531 169.691406 61.144531 176.179688 L 61.144531 181.722656 C 61.140625 182.023438 61.195312 182.316406 61.308594 182.59375 C 61.417969 182.871094 61.582031 183.121094 61.792969 183.332031 C 62.003906 183.546875 62.246094 183.710938 62.523438 183.828125 C 62.800781 183.945312 63.089844 184.003906 63.390625 184.003906 C 63.691406 184.003906 63.980469 183.945312 64.257812 183.828125 C 64.535156 183.710938 64.78125 183.546875 64.992188 183.332031 C 65.203125 183.121094 65.363281 182.871094 65.476562 182.59375 C 65.589844 182.316406 65.640625 182.023438 65.636719 181.722656 L 65.636719 176.179688 C 65.636719 167.238281 58.261719 160.007812 49.234375 160.007812 Z M 83.820312 167.121094 C 75.398438 167.121094 68.410156 173.394531 67.511719 181.511719 C 67.476562 181.808594 67.503906 182.101562 67.585938 182.386719 C 67.667969 182.675781 67.804688 182.933594 67.992188 183.167969 C 68.175781 183.398438 68.402344 183.585938 68.664062 183.730469 C 68.921875 183.875 69.203125 183.960938 69.5 183.996094 C 69.796875 184.027344 70.085938 184.003906 70.375 183.917969 C 70.660156 183.835938 70.917969 183.699219 71.152344 183.515625 C 71.382812 183.328125 71.570312 183.101562 71.714844 182.839844 C 71.859375 182.582031 71.945312 182.300781 71.980469 182.003906 C 72.628906 176.15625 77.609375 171.617188 83.820312 171.617188 C 90.480469 171.617188 95.730469 176.804688 95.730469 183.292969 L 95.730469 193.867188 L 69.664062 193.867188 C 69.363281 193.863281 69.074219 193.917969 68.792969 194.03125 C 68.515625 194.144531 68.269531 194.304688 68.054688 194.515625 C 67.839844 194.726562 67.675781 194.972656 67.558594 195.25 C 67.441406 195.527344 67.382812 195.816406 67.382812 196.113281 C 67.382812 196.414062 67.441406 196.703125 67.558594 196.980469 C 67.675781 197.257812 67.839844 197.503906 68.054688 197.714844 C 68.269531 197.925781 68.515625 198.085938 68.792969 198.199219 C 69.074219 198.3125 69.363281 198.367188 69.664062 198.363281 L 97.976562 198.363281 C 98.273438 198.363281 98.5625 198.304688 98.835938 198.191406 C 99.113281 198.078125 99.355469 197.914062 99.566406 197.703125 C 99.777344 197.492188 99.9375 197.25 100.050781 196.976562 C 100.167969 196.699219 100.222656 196.414062 100.222656 196.113281 L 100.222656 183.292969 C 100.222656 174.351562 92.847656 167.121094 83.820312 167.121094 Z M 83.820312 167.121094 " fill-opacity="1" fill-rule="nonzero"/>
  </g>
  <g fill="#001f54" fill-opacity="1">
    <g transform="translate(104.26357, 186.875494)">
      <g>
        <path d="M 42.3125 -40.296875 L 42.3125 -32.234375 L 34.25 -32.234375 L 22.171875 -20.15625 L 34.25 -8.0625 L 42.3125 -8.0625 L 42.3125 0 L 32.640625 0 C 31.503906 0 30.53125 -0.398438 29.71875 -1.203125 L 14.8125 -16.125 L 10.078125 -16.125 L 10.078125 0 L 2.015625 0 L 2.015625 -40.296875 L 10.078125 -40.296875 L 10.078125 -24.1875 L 14.8125 -24.1875 L 29.71875 -39.09375 C 30.53125 -39.894531 31.503906 -40.296875 32.640625 -40.296875 Z M 42.3125 -40.296875 "/>
      </g>
    </g>
  </g>
  <g fill="#001f54" fill-opacity="1">
    <g transform="translate(148.590891, 186.875494)">
      <g>
        <path d="M 34.25 0 L 10.078125 0 C 8.597656 0 7.242188 -0.359375 6.015625 -1.078125 C 4.796875 -1.804688 3.820312 -2.78125 3.09375 -4 C 2.375 -5.226562 2.015625 -6.582031 2.015625 -8.0625 L 2.015625 -32.234375 C 2.015625 -33.710938 2.375 -35.066406 3.09375 -36.296875 C 3.820312 -37.523438 4.796875 -38.5 6.015625 -39.21875 C 7.242188 -39.9375 8.597656 -40.296875 10.078125 -40.296875 L 34.25 -40.296875 C 35.726562 -40.296875 37.082031 -39.9375 38.3125 -39.21875 C 39.539062 -38.5 40.515625 -37.523438 41.234375 -36.296875 C 41.953125 -35.066406 42.3125 -33.710938 42.3125 -32.234375 L 42.3125 -8.0625 C 42.3125 -6.613281 41.953125 -5.273438 41.234375 -4.046875 C 40.515625 -2.828125 39.546875 -1.847656 38.328125 -1.109375 C 37.117188 -0.367188 35.757812 0 34.25 0 Z M 10.078125 -32.234375 L 10.078125 -8.0625 L 34.25 -8.0625 L 34.25 -32.234375 Z M 10.078125 -32.234375 "/>
      </g>
    </g>
  </g>
  <g fill="#001f54" fill-opacity="1">
    <g transform="translate(192.918211, 186.875494)">
      <g>
        <path d="M 10.078125 -40.296875 L 34.25 -40.296875 C 35.726562 -40.296875 37.082031 -39.9375 38.3125 -39.21875 C 39.539062 -38.5 40.515625 -37.523438 41.234375 -36.296875 C 41.953125 -35.066406 42.3125 -33.710938 42.3125 -32.234375 L 42.3125 0 L 34.25 0 L 34.25 -16.125 L 10.078125 -16.125 L 10.078125 0 L 2.015625 0 L 2.015625 -32.234375 C 2.015625 -33.710938 2.375 -35.066406 3.09375 -36.296875 C 3.820312 -37.523438 4.796875 -38.5 6.015625 -39.21875 C 7.242188 -39.9375 8.597656 -40.296875 10.078125 -40.296875 Z M 10.078125 -32.234375 L 10.078125 -24.1875 L 34.25 -24.1875 L 34.25 -32.234375 Z M 10.078125 -32.234375 "/>
      </g>
    </g>
  </g>
  <g fill="#001f54" fill-opacity="1">
    <g transform="translate(237.245532, 186.875494)">
      <g>
        <path d="M 42.3125 0 L 10.078125 0 C 8.597656 0 7.242188 -0.359375 6.015625 -1.078125 C 4.796875 -1.804688 3.820312 -2.78125 3.09375 -4 C 2.375 -5.226562 2.015625 -6.582031 2.015625 -8.0625 L 2.015625 -32.234375 C 2.015625 -33.710938 2.375 -35.066406 3.09375 -36.296875 C 3.820312 -37.523438 4.796875 -38.5 6.015625 -39.21875 C 7.242188 -39.9375 8.597656 -40.296875 10.078125 -40.296875 L 42.3125 -40.296875 L 42.3125 -32.234375 L 10.078125 -32.234375 L 10.078125 -8.0625 L 42.3125 -8.0625 Z M 42.3125 0 "/>
      </g>
    </g>
  </g>
  <g fill="#001f54" fill-opacity="1">
    <g transform="translate(281.572853, 186.875494)">
      <g>
        <path d="M 34.25 -24.1875 L 34.25 -40.296875 L 42.3125 -40.296875 L 42.3125 0 L 34.25 0 L 34.25 -16.125 L 10.078125 -16.125 L 10.078125 0 L 2.015625 0 L 2.015625 -40.296875 L 10.078125 -40.296875 L 10.078125 -24.1875 Z M 34.25 -24.1875 "/>
      </g>
    </g>
  </g>
</svg>
