<svg width="670" height="671" viewBox="0 0 670 671" fill="none" xmlns="http://www.w3.org/2000/svg">
<path fill-rule="evenodd" clip-rule="evenodd" d="M392.862 213.191C392.862 213.191 414.829 298.493 420.176 318.584C425.523 338.673 438.034 373.147 443.208 383.909C448.385 394.67 450.355 401.486 479.009 394.136C507.66 386.786 515.89 383.3 515.89 383.3C515.89 383.3 605.029 365.889 622.337 358.108C639.65 350.327 650.66 344.118 646.06 317.28C641.481 290.444 616.928 193.413 610.838 172.519C604.745 151.625 592.895 148.033 574.792 150.208C556.688 152.383 421.261 180.616 409.985 185C398.711 189.383 387.931 193.303 392.862 213.191Z" fill="white"/>
<path fill-rule="evenodd" clip-rule="evenodd" d="M391.506 213.527C391.508 213.531 391.508 213.535 391.51 213.539C391.51 213.539 413.48 298.85 418.826 318.943C424.193 339.108 436.756 373.709 441.95 384.512C444.702 390.234 446.71 394.821 451.73 397.086C456.612 399.29 464.538 399.288 479.354 395.489C506.029 388.646 515.096 385.126 516.294 384.641C520.164 383.882 605.944 367.007 622.911 359.38C633.653 354.552 641.972 350.208 645.947 341.587C648.605 335.841 649.342 328.152 647.444 317.045C642.843 290.18 618.274 193.044 612.177 172.128C608.995 161.213 604.238 154.867 597.982 151.484C591.771 148.126 584.013 147.694 574.624 148.822C556.482 151.001 420.778 179.306 409.48 183.698C402.384 186.456 395.553 189.151 392.281 195.28C390.079 199.403 389.42 205.112 391.506 213.527ZM394.215 212.849C392.357 205.356 392.781 200.267 394.742 196.595C397.713 191.034 404.055 188.802 410.492 186.3C421.743 181.926 556.891 153.764 574.956 151.593C583.671 150.546 590.889 150.822 596.653 153.94C602.373 157.033 606.587 162.929 609.497 172.909C615.581 193.781 640.096 290.707 644.697 317.516C646.461 327.877 645.881 335.057 643.424 340.419C639.717 348.464 631.793 352.327 621.765 356.834C604.508 364.593 515.621 381.928 515.621 381.928C515.528 381.946 515.434 381.975 515.344 382.013C515.344 382.013 507.157 385.475 478.66 392.784C464.822 396.333 457.438 396.599 452.878 394.542C448.454 392.545 446.89 388.344 444.467 383.304C439.31 372.581 426.851 338.239 421.524 318.224C416.207 298.236 394.432 213.691 394.215 212.849Z" fill="black"/>
<path fill-rule="evenodd" clip-rule="evenodd" d="M543.73 279.541L555.212 275.204L548.197 243.098L562.785 240.507L574.792 278.974L582.769 275.778L579.651 251.026L598.568 243.656L589.471 201.921L616.24 192.417C616.24 192.417 631.827 252.768 632.881 258.456C633.937 264.147 645.903 308.905 646.663 321.293C647.422 333.682 648.382 348.071 624.796 356.991C601.205 365.911 583.45 368.942 583.45 368.942L568.739 372.278L543.73 279.541Z" fill="white"/>
<path fill-rule="evenodd" clip-rule="evenodd" d="M543.237 278.235C542.565 278.489 542.194 279.211 542.382 279.905L567.393 372.642C567.587 373.366 568.32 373.806 569.05 373.64L583.723 370.311C584.643 370.15 602.186 367.034 625.29 358.297C635.094 354.59 640.789 349.931 644.072 344.904C648.985 337.369 648.516 328.922 648.047 321.208C647.288 308.787 635.317 263.906 634.254 258.202C633.196 252.504 617.591 192.067 617.591 192.067C617.493 191.688 617.241 191.368 616.895 191.184C616.551 191 616.142 190.97 615.773 191.101L589.005 200.606C588.342 200.841 587.957 201.532 588.107 202.218L596.951 242.787L579.145 249.724C578.548 249.956 578.187 250.564 578.267 251.2L581.251 274.882L575.674 277.116L564.119 240.092C563.909 239.422 563.234 239.011 562.542 239.133L547.954 241.722C547.579 241.789 547.248 242.006 547.038 242.32C546.826 242.635 546.752 243.024 546.833 243.395L553.593 274.324L543.237 278.235ZM545.408 280.399L555.706 276.508C556.353 276.265 556.724 275.581 556.577 274.905L549.87 244.217L561.821 242.097L573.458 279.389C573.575 279.76 573.84 280.068 574.191 280.234C574.544 280.401 574.948 280.414 575.31 280.269L583.29 277.073C583.879 276.837 584.234 276.231 584.154 275.602L581.172 251.93L599.075 244.956C599.714 244.708 600.078 244.029 599.932 243.359L591.097 202.825L615.271 194.242C617.663 203.522 630.554 253.559 631.509 258.711C632.561 264.386 644.496 309.023 645.256 321.38C645.702 328.532 646.305 336.391 641.727 343.377C638.69 348.029 633.37 352.256 624.3 355.687C600.859 364.551 583.216 367.566 583.216 367.566C583.189 367.57 583.167 367.575 583.142 367.581L569.74 370.621L545.408 280.399Z" fill="black"/>
<path fill-rule="evenodd" clip-rule="evenodd" d="M637.774 278.974C637.774 278.974 624.517 250.946 611.973 258.626C599.43 266.304 620.363 309.794 620.363 309.794C620.363 309.794 604.69 283.472 595.339 288.725C585.988 293.98 610.067 326.557 610.067 326.557C610.067 326.557 595.158 316.78 589.384 320.541C583.609 324.304 599.126 342.718 606.128 346.881C606.128 346.881 597.751 345.163 595.339 350.492C592.924 355.821 601.813 361.076 607.088 363.05C607.088 363.05 632.477 357.458 641.482 346.083C650.482 334.707 647.02 321.336 644.295 306.897C641.593 292.461 637.774 278.974 637.774 278.974Z" fill="#0ACF83"/>
<path d="M411.344 207.299C414.07 207.299 416.281 205.089 416.281 202.362C416.281 199.635 414.07 197.425 411.344 197.425C408.617 197.425 406.406 199.635 406.406 202.362C406.406 205.089 408.617 207.299 411.344 207.299Z" fill="white"/>
<path fill-rule="evenodd" clip-rule="evenodd" d="M411.344 196.029C407.848 196.029 405.01 198.867 405.01 202.362C405.01 205.858 407.848 208.695 411.344 208.695C414.839 208.695 417.677 205.858 417.677 202.362C417.677 198.867 414.839 196.029 411.344 196.029ZM411.344 198.821C413.298 198.821 414.886 200.408 414.886 202.362C414.886 204.317 413.298 205.904 411.344 205.904C409.389 205.904 407.801 204.317 407.801 202.362C407.801 200.408 409.389 198.821 411.344 198.821Z" fill="black"/>
<path d="M430.673 201.921C433.399 201.921 435.61 199.711 435.61 196.984C435.61 194.257 433.399 192.047 430.673 192.047C427.946 192.047 425.735 194.257 425.735 196.984C425.735 199.711 427.946 201.921 430.673 201.921Z" fill="white"/>
<path fill-rule="evenodd" clip-rule="evenodd" d="M430.672 190.651C427.177 190.651 424.338 193.489 424.338 196.984C424.338 200.479 427.177 203.317 430.672 203.317C434.167 203.317 437.006 200.479 437.006 196.984C437.006 193.489 434.167 190.651 430.672 190.651ZM430.672 193.443C432.626 193.443 434.214 195.03 434.214 196.984C434.214 198.939 432.626 200.525 430.672 200.525C428.718 200.525 427.13 198.939 427.13 196.984C427.13 195.03 428.718 193.443 430.672 193.443Z" fill="black"/>
<path d="M449.129 197.353C451.855 197.353 454.066 195.143 454.066 192.416C454.066 189.689 451.855 187.479 449.129 187.479C446.402 187.479 444.191 189.689 444.191 192.416C444.191 195.143 446.402 197.353 449.129 197.353Z" fill="white"/>
<path fill-rule="evenodd" clip-rule="evenodd" d="M449.129 186.083C445.634 186.083 442.795 188.921 442.795 192.416C442.795 195.911 445.634 198.749 449.129 198.749C452.624 198.749 455.463 195.911 455.463 192.416C455.463 188.921 452.624 186.083 449.129 186.083ZM449.129 188.875C451.083 188.875 452.671 190.462 452.671 192.416C452.671 194.371 451.083 195.957 449.129 195.957C447.175 195.957 445.587 194.371 445.587 192.416C445.587 190.462 447.175 188.875 449.129 188.875Z" fill="black"/>
<path fill-rule="evenodd" clip-rule="evenodd" d="M318.126 159.195C318.126 159.195 248.609 169.902 228.413 181.778C208.215 193.655 227.971 208.484 239.269 200.382C239.269 200.382 245.527 206.356 253.183 249.054C261.087 293.144 279.862 307.429 306.852 308.476L369.198 277.9C369.198 277.9 371.86 273.739 368.126 270.769C361.473 265.478 351.606 255.589 348.218 241.514C342.925 219.539 338.132 174.845 318.126 159.195Z" fill="white"/>
<path fill-rule="evenodd" clip-rule="evenodd" d="M238.898 202.275C239.329 202.972 239.954 204.103 240.682 205.775C243.202 211.553 247.248 223.866 251.809 249.3C256.637 276.242 265.548 292.211 277.765 300.941C285.979 306.81 295.709 309.441 306.798 309.87C307.03 309.879 307.26 309.83 307.468 309.729L369.811 279.152C370.041 279.041 370.236 278.867 370.374 278.65C370.374 278.65 373.695 273.415 368.994 269.676C362.511 264.522 352.876 254.901 349.573 241.186C346.391 227.971 343.382 206.56 337.158 188.156C332.923 175.631 327.175 164.501 318.985 158.095C318.682 157.858 318.293 157.757 317.913 157.815C317.913 157.815 248.017 168.631 227.704 180.575C218.735 185.849 217.172 191.823 218.956 196.307C220.046 199.043 222.447 201.326 225.458 202.695C229.5 204.533 234.617 204.72 238.898 202.275ZM317.735 160.668C325.299 166.839 330.552 177.334 334.514 189.05C340.709 207.37 343.693 228.686 346.859 241.84C350.337 256.276 360.431 266.436 367.256 271.863C369.492 273.641 368.612 276.001 368.195 276.837C368.192 276.837 306.557 307.067 306.557 307.067C296.196 306.618 287.082 304.168 279.388 298.67C267.614 290.254 259.21 274.773 254.556 248.808C246.773 205.395 240.233 199.372 240.233 199.372C239.747 198.909 239.001 198.857 238.456 199.248C234.815 201.857 230.195 201.782 226.615 200.154C224.29 199.097 222.391 197.385 221.549 195.275C220.118 191.679 221.927 187.211 229.118 182.981C248.101 171.82 310.903 161.74 317.732 160.668H317.735Z" fill="black"/>
<path fill-rule="evenodd" clip-rule="evenodd" d="M241.583 201.315C241.583 201.315 239.225 197.472 236.004 194.47C233.655 192.28 230.834 190.604 228.129 190.752C227.359 190.793 226.769 191.452 226.81 192.221C226.852 192.99 227.511 193.581 228.279 193.539C230.311 193.429 232.337 194.869 234.101 196.512C237.047 199.258 239.202 202.774 239.202 202.774C239.604 203.431 240.464 203.637 241.123 203.235C241.78 202.832 241.985 201.972 241.583 201.315Z" fill="black"/>
<path fill-rule="evenodd" clip-rule="evenodd" d="M372.618 281.882C372.618 281.882 374.353 269.976 371.416 263.667L312.378 293.897C312.378 293.897 308.106 307.094 299.963 307.887C299.963 307.887 306.661 312.278 323.88 305.723C345.21 297.6 372.618 281.882 372.618 281.882Z" fill="white"/>
<path fill-rule="evenodd" clip-rule="evenodd" d="M373.312 283.092C373.683 282.878 373.937 282.507 373.997 282.083C373.997 282.083 375.746 269.663 372.682 263.077C372.521 262.733 372.229 262.47 371.869 262.347C371.512 262.222 371.116 262.251 370.779 262.423L311.741 292.653C311.413 292.823 311.165 293.116 311.051 293.466C311.051 293.466 309.583 297.995 306.736 301.781C304.978 304.115 302.7 306.218 299.826 306.498C299.237 306.553 298.75 306.978 298.607 307.552C298.466 308.126 298.7 308.729 299.196 309.053C299.196 309.053 306.263 313.923 324.375 307.027C345.795 298.871 373.312 283.092 373.312 283.092ZM371.326 281.011C367.224 283.336 342.782 297.031 323.381 304.418C313.985 307.996 307.902 308.217 304.429 307.762C306.175 306.685 307.696 305.147 308.965 303.458C311.464 300.137 312.996 296.298 313.51 294.884L370.681 265.61C372.405 270.869 371.614 278.693 371.326 281.011Z" fill="black"/>
<path fill-rule="evenodd" clip-rule="evenodd" d="M261.064 208.632C278.949 202.029 296.84 195.754 314.316 188.088C315.022 187.778 315.343 186.954 315.033 186.249C314.722 185.543 313.898 185.222 313.195 185.531C295.77 193.176 277.928 199.429 260.097 206.013C259.374 206.28 259.003 207.083 259.271 207.806C259.537 208.529 260.341 208.899 261.064 208.632Z" fill="black"/>
<path fill-rule="evenodd" clip-rule="evenodd" d="M267.536 225.336C273.1 222.786 278.92 220.981 284.586 218.692C294.247 214.788 303.716 210.538 313.474 206.853C314.195 206.581 314.559 205.775 314.287 205.054C314.014 204.334 313.208 203.969 312.489 204.242C302.711 207.934 293.222 212.191 283.541 216.103C277.834 218.409 271.976 220.231 266.373 222.798C265.672 223.119 265.363 223.949 265.685 224.648C266.007 225.349 266.835 225.657 267.536 225.336Z" fill="black"/>
<path fill-rule="evenodd" clip-rule="evenodd" d="M271.333 242.345C279.431 238.323 288.186 235.801 296.693 232.788C304.844 229.898 312.815 226.537 320.799 223.221C321.512 222.926 321.849 222.108 321.554 221.397C321.257 220.685 320.44 220.348 319.729 220.643C311.79 223.942 303.866 227.285 295.759 230.158C287.15 233.208 278.29 235.772 270.089 239.846C269.401 240.187 269.118 241.027 269.462 241.717C269.803 242.405 270.643 242.689 271.333 242.345Z" fill="black"/>
<path fill-rule="evenodd" clip-rule="evenodd" d="M277.026 259.243C290.77 253.528 305.104 249.425 318.776 243.453C319.482 243.145 319.804 242.321 319.495 241.615C319.187 240.909 318.363 240.585 317.657 240.896C304.001 246.859 289.685 250.957 275.954 256.665C275.242 256.962 274.905 257.78 275.202 258.49C275.496 259.202 276.314 259.54 277.026 259.243Z" fill="black"/>
<path fill-rule="evenodd" clip-rule="evenodd" d="M319.573 263.042C317.673 265.898 315.004 268.067 311.862 269.851C311.192 270.233 310.957 271.084 311.337 271.754C311.719 272.424 312.57 272.66 313.24 272.279C316.393 270.49 319.102 268.339 321.17 265.619C322.095 266.604 323.288 267.267 324.775 267.423C328.071 267.774 330.648 264.978 332.002 262.349C332.33 261.713 332.603 261.052 332.853 260.382C333.728 261.139 334.686 261.844 335.904 261.882C336.877 261.911 337.764 261.547 338.53 260.94C339.423 260.23 340.147 259.169 340.645 258.298C340.723 258.162 340.904 257.717 341.025 257.409C341.295 257.387 341.668 257.353 341.837 257.317C342.738 257.141 343.566 256.77 344.341 256.292C344.998 255.888 345.203 255.026 344.797 254.372C344.395 253.715 343.533 253.51 342.878 253.914C342.385 254.218 341.867 254.468 341.295 254.579C341.038 254.631 340.611 254.617 340.27 254.675C339.915 254.738 339.604 254.854 339.374 255.002C339.135 255.153 338.845 255.457 338.628 255.895C338.472 256.212 338.233 256.86 338.206 256.94C337.914 257.447 337.529 258.054 337.049 258.528C336.743 258.827 336.408 259.104 335.991 259.091C335.615 259.08 335.332 258.85 335.055 258.62C334.724 258.347 334.414 258.037 334.103 257.762C333.717 257.418 333.092 256.835 332.585 256.692C332.531 256.679 331.325 256.429 330.89 257.57C330.818 257.76 330.488 258.722 330.474 258.76C330.193 259.544 329.903 260.328 329.521 261.069C329.041 262.003 328.375 263.006 327.529 263.736C326.839 264.33 326.023 264.75 325.07 264.647C324.042 264.54 323.303 263.957 322.767 263.162C323.301 262.197 323.763 261.166 324.152 260.067C324.342 259.526 324.5 258.975 324.652 258.423C324.757 258.041 324.851 257.659 324.933 257.273C325 256.956 325.056 256.636 325.105 256.315C325.204 255.649 325.329 253.97 324.969 252.884C324.708 252.094 324.214 251.542 323.58 251.29C323.138 251.111 322.593 251.053 321.923 251.272C320.994 251.573 320.279 252.237 319.77 253.096C319.174 254.101 318.872 255.392 318.745 256.386C318.502 258.289 318.707 260.884 319.573 263.042ZM322.394 254.189C322.236 254.365 322.117 254.595 322.012 254.827C321.726 255.45 321.588 256.17 321.514 256.739C321.423 257.463 321.409 258.316 321.496 259.198L321.519 259.14C321.686 258.66 321.827 258.173 321.961 257.684C322.05 257.355 322.131 257.025 322.202 256.69C322.258 256.431 322.305 256.167 322.343 255.904C322.387 255.602 322.454 254.99 322.419 254.399C322.416 254.336 322.408 254.265 322.394 254.189Z" fill="black"/>
<path fill-rule="evenodd" clip-rule="evenodd" d="M321.074 277.326C326.209 275.302 331.207 272.892 336.183 270.505C336.877 270.17 337.17 269.337 336.837 268.642C336.502 267.948 335.669 267.653 334.974 267.988C330.059 270.346 325.123 272.729 320.051 274.728C319.334 275.01 318.981 275.822 319.263 276.539C319.546 277.256 320.357 277.609 321.074 277.326Z" fill="black"/>
<path fill-rule="evenodd" clip-rule="evenodd" d="M52.3984 285.62C52.3984 285.62 31.5279 400.146 28.2427 435.379C24.9574 470.614 40.5104 472.738 57.6133 478.252C74.7162 483.768 181.029 503.516 213.978 504.938C246.928 506.359 249.472 498.665 254.797 479.166C260.121 459.666 282.747 348.098 286.262 327.102C289.777 306.105 288.719 289.864 270.434 284.642C252.152 279.421 130.449 254.885 101.646 251.354C72.8423 247.824 60.8784 247.292 52.3984 285.62Z" fill="white"/>
<path fill-rule="evenodd" clip-rule="evenodd" d="M51.0342 285.319C51.032 285.336 51.0275 285.352 51.0253 285.37C51.0253 285.37 30.1413 399.987 26.8516 435.249C25.4982 449.772 27.3319 458.824 31.0504 464.838C36.6382 473.877 46.5876 476.164 57.187 479.581C74.3301 485.108 180.891 504.907 213.918 506.331C230.894 507.064 240.014 505.311 245.6 501.001C251.228 496.659 253.379 489.655 256.143 479.534C261.472 460.014 284.12 348.348 287.64 327.332C291.294 305.49 289.835 288.731 270.819 283.3C252.512 278.071 130.655 253.503 101.816 249.969C87.0333 248.158 76.579 247.24 68.7266 251.568C60.8407 255.915 55.4049 265.567 51.0342 285.319ZM53.7656 285.897C57.8749 267.338 62.661 258.099 70.0734 254.014C77.5238 249.907 87.4532 251.021 101.476 252.739C130.242 256.265 251.791 280.769 270.051 285.984C287.6 290.996 288.259 306.716 284.886 326.872C281.373 347.85 258.77 459.315 253.45 478.797C250.891 488.177 249.109 494.767 243.894 498.792C238.639 502.847 230.013 504.23 214.038 503.542C181.166 502.124 75.1051 482.426 58.0424 476.923C52.9683 475.288 48.0304 473.959 43.6932 471.952C39.5571 470.038 35.9771 467.498 33.4244 463.369C29.9247 457.712 28.3592 449.174 29.6322 435.508C32.8861 400.612 53.4083 287.867 53.7656 285.897Z" fill="black"/>
<path fill-rule="evenodd" clip-rule="evenodd" d="M74.2134 439.87L60.8477 470.706L90.4731 477.812L94.4554 448.116L74.2134 439.87Z" fill="white"/>
<path fill-rule="evenodd" clip-rule="evenodd" d="M74.7396 438.577C74.0359 438.291 73.2342 438.617 72.9313 439.314L59.5656 470.152C59.4025 470.529 59.4141 470.96 59.5982 471.329C59.7822 471.7 60.1202 471.968 60.521 472.064L90.1464 479.168C90.5309 479.259 90.9364 479.186 91.2626 478.962C91.5888 478.739 91.8032 478.389 91.8568 477.998L95.839 448.301C95.9229 447.669 95.571 447.062 94.9815 446.823L74.7396 438.577ZM74.9493 441.677L92.9286 449L89.2937 476.093L62.7882 469.737L74.9493 441.677Z" fill="black"/>
<path fill-rule="evenodd" clip-rule="evenodd" d="M387.782 551.208C389.072 555.197 390.236 559.222 391.446 563.235C391.67 563.972 392.449 564.39 393.186 564.168C393.923 563.945 394.343 563.166 394.12 562.429C392.903 558.397 391.732 554.357 390.439 550.349C390.202 549.616 389.414 549.214 388.681 549.451C387.949 549.687 387.545 550.474 387.782 551.208Z" fill="black"/>
<path fill-rule="evenodd" clip-rule="evenodd" d="M411.274 542.996C412.889 544.417 414.512 545.875 415.957 547.472C416.473 548.044 417.358 548.088 417.927 547.572C418.499 547.054 418.543 546.172 418.028 545.6C416.511 543.923 414.811 542.391 413.119 540.901C412.54 540.392 411.658 540.448 411.149 541.026C410.64 541.605 410.696 542.489 411.274 542.996Z" fill="black"/>
<path fill-rule="evenodd" clip-rule="evenodd" d="M358.471 554.304C357.325 556.412 356.443 558.621 355.456 560.803C355.139 561.504 355.452 562.33 356.153 562.65C356.856 562.967 357.683 562.654 358 561.951C358.958 559.831 359.811 557.685 360.923 555.635C361.292 554.958 361.039 554.11 360.363 553.743C359.686 553.375 358.837 553.625 358.471 554.304Z" fill="black"/>
<path fill-rule="evenodd" clip-rule="evenodd" d="M359.869 412.116C361.222 415.522 362.652 418.928 363.896 422.376C364.157 423.1 364.956 423.475 365.682 423.216C366.406 422.953 366.783 422.153 366.522 421.429C365.267 417.954 363.826 414.519 362.464 411.087C362.18 410.37 361.367 410.019 360.653 410.305C359.936 410.589 359.585 411.402 359.869 412.116Z" fill="black"/>
<path fill-rule="evenodd" clip-rule="evenodd" d="M395.562 415.665C394.691 418.635 394.137 421.652 393.724 424.714C393.621 425.478 394.157 426.181 394.919 426.284C395.682 426.387 396.386 425.851 396.491 425.087C396.884 422.166 397.408 419.285 398.239 416.451C398.456 415.712 398.032 414.934 397.293 414.718C396.553 414.501 395.778 414.925 395.562 415.665Z" fill="black"/>
<path fill-rule="evenodd" clip-rule="evenodd" d="M335.736 442.025C337.967 443.917 340.176 445.833 342.309 447.836C342.869 448.363 343.754 448.334 344.281 447.773C344.808 447.211 344.781 446.329 344.22 445.799C342.054 443.767 339.81 441.817 337.543 439.894C336.955 439.396 336.076 439.47 335.578 440.057C335.077 440.645 335.151 441.525 335.736 442.025Z" fill="black"/>
<path d="M430.094 255.376C439.154 255.376 446.497 248.032 446.497 238.973C446.497 229.914 439.154 222.57 430.094 222.57C421.035 222.57 413.691 229.914 413.691 238.973C413.691 248.032 421.035 255.376 430.094 255.376Z" fill="white"/>
<path fill-rule="evenodd" clip-rule="evenodd" d="M430.094 221.174C420.269 221.174 412.294 229.15 412.294 238.972C412.294 248.797 420.269 256.772 430.094 256.772C439.916 256.772 447.891 248.797 447.891 238.972C447.891 229.15 439.916 221.174 430.094 221.174ZM430.094 223.967C438.375 223.967 445.099 230.689 445.099 238.972C445.099 247.256 438.375 253.98 430.094 253.98C421.81 253.98 415.086 247.256 415.086 238.972C415.086 230.689 421.81 223.967 430.094 223.967Z" fill="black"/>
<path fill-rule="evenodd" clip-rule="evenodd" d="M423.178 241.266L429.366 245.045C429.708 245.255 430.126 245.307 430.508 245.188C430.892 245.068 431.207 244.788 431.37 244.422L437.473 230.714C437.786 230.01 437.469 229.184 436.765 228.871C436.062 228.559 435.235 228.876 434.923 229.579L429.465 241.836L424.634 238.883C423.975 238.481 423.115 238.689 422.713 239.346C422.313 240.005 422.521 240.864 423.178 241.266Z" fill="black"/>
<path fill-rule="evenodd" clip-rule="evenodd" d="M447.63 499.415C447.63 499.415 451.299 509.235 444.775 515.263C444.775 515.263 456.056 517.918 459.924 525.523C459.924 525.523 456.719 512.418 461.934 506.287C461.934 506.287 452.78 507.513 447.63 499.415Z" fill="white"/>
<path fill-rule="evenodd" clip-rule="evenodd" d="M448.807 498.667C448.423 498.064 447.646 497.847 447.007 498.166C446.368 498.484 446.071 499.234 446.321 499.904C446.321 499.904 447.159 502.169 447.255 505.123C447.344 507.991 446.744 511.544 443.829 514.238C443.45 514.588 443.293 515.12 443.425 515.618C443.557 516.118 443.952 516.504 444.455 516.62C444.455 516.62 448.323 517.536 452.213 519.828C454.719 521.306 457.256 523.354 458.681 526.155C459.003 526.787 459.746 527.077 460.409 526.831C461.075 526.583 461.448 525.88 461.28 525.19C461.28 525.19 460.173 520.658 460.369 515.763C460.492 512.676 461.104 509.418 462.998 507.191C463.371 506.751 463.436 506.126 463.159 505.619C462.884 505.112 462.321 504.826 461.749 504.904C461.749 504.904 453.471 505.997 448.807 498.667ZM449.962 504.125C453.243 506.769 456.921 507.522 459.364 507.698C458.192 510.072 457.689 512.906 457.58 515.651C457.513 517.333 457.586 518.974 457.72 520.431C456.452 519.254 455.043 518.255 453.629 517.425C451.273 516.035 448.926 515.109 447.291 514.557C449.808 511.207 450.192 507.229 449.962 504.125Z" fill="black"/>
<path fill-rule="evenodd" clip-rule="evenodd" d="M311.153 542.579C311.153 542.579 320.348 542.318 324.028 533.719C324.028 533.719 326.197 540.413 332.647 543.816C332.647 543.816 325.759 547.749 322.358 561.917C322.358 561.917 320.507 545.362 311.153 542.579Z" fill="white"/>
<path fill-rule="evenodd" clip-rule="evenodd" d="M311.113 541.183C310.428 541.203 309.858 541.719 309.769 542.398C309.679 543.076 310.097 543.722 310.756 543.916C314.122 544.919 316.346 547.965 317.878 551.188C320.333 556.345 320.971 562.071 320.971 562.071C321.047 562.745 321.594 563.268 322.271 563.31C322.948 563.353 323.557 562.902 323.716 562.243C326.939 548.823 333.339 545.028 333.339 545.028C333.782 544.776 334.052 544.303 334.043 543.793C334.034 543.284 333.75 542.82 333.299 542.583C327.359 539.447 325.355 533.29 325.355 533.29C325.177 532.736 324.672 532.352 324.091 532.325C323.511 532.298 322.974 532.636 322.744 533.169C319.419 540.941 311.113 541.183 311.113 541.183ZM315.272 543.188C317.976 542.335 321.465 540.553 323.924 536.85C325.052 538.916 327.035 541.774 330.191 543.954C328.248 545.71 325.076 549.383 322.622 556.155C322.11 554.25 321.393 552.077 320.399 549.989C319.153 547.369 317.472 544.906 315.272 543.188Z" fill="black"/>
<path fill-rule="evenodd" clip-rule="evenodd" d="M297.35 428.346C297.35 428.346 304.231 427.575 304.693 419.276C304.693 419.276 308.373 427.151 314.544 427.575C314.544 427.575 309.072 429.907 307.174 442.244C307.174 442.244 305.269 429.367 297.35 428.346Z" fill="white"/>
<path fill-rule="evenodd" clip-rule="evenodd" d="M297.196 426.959C296.492 427.037 295.961 427.627 295.954 428.335C295.95 429.041 296.472 429.639 297.171 429.731C299.889 430.081 301.727 432.127 303.021 434.374C305.149 438.079 305.794 442.447 305.794 442.447C305.895 443.131 306.48 443.638 307.172 443.64C307.862 443.642 308.45 443.137 308.555 442.456C310.299 431.118 315.092 428.86 315.092 428.86C315.686 428.607 316.03 427.98 315.922 427.343C315.815 426.707 315.286 426.227 314.641 426.182C312.521 426.037 310.761 424.828 309.392 423.477C307.184 421.3 305.957 418.685 305.957 418.685C305.685 418.106 305.055 417.784 304.427 417.907C303.8 418.028 303.333 418.559 303.298 419.198C302.909 426.22 297.196 426.959 297.196 426.959ZM301.267 428.346C302.826 427.386 304.479 425.775 305.395 423.089C305.96 423.859 306.643 424.686 307.431 425.465C308.566 426.584 309.919 427.593 311.458 428.241C310.053 429.731 308.338 432.261 307.049 436.448C306.625 435.316 306.096 434.121 305.439 432.982C304.385 431.149 303.009 429.474 301.267 428.346Z" fill="black"/>
<path fill-rule="evenodd" clip-rule="evenodd" d="M364.742 386.781C364.742 386.781 376.579 382.808 375.746 368.629C375.746 368.629 378.035 379.003 391.935 382.203C391.935 382.203 381.238 388.421 381.51 401.877C381.51 401.877 378.272 387.266 364.742 386.781Z" fill="white"/>
<path fill-rule="evenodd" clip-rule="evenodd" d="M364.298 385.459C363.659 385.674 363.264 386.315 363.36 386.982C363.458 387.65 364.019 388.153 364.693 388.177C377.198 388.624 380.148 402.178 380.148 402.178C380.304 402.879 380.966 403.348 381.678 403.261C382.39 403.176 382.922 402.564 382.906 401.847C382.652 389.247 392.637 383.409 392.637 383.409C393.133 383.123 393.401 382.56 393.316 381.995C393.229 381.428 392.807 380.972 392.248 380.843C379.326 377.866 377.109 368.327 377.109 368.327C376.952 367.617 376.276 367.146 375.554 367.246C374.833 367.347 374.31 367.983 374.352 368.709C375.118 381.759 364.298 385.459 364.298 385.459ZM369.089 386.035C372.003 384.019 375.672 380.329 376.823 374.127C378.859 377.12 382.489 380.691 388.811 382.779C386.187 385.006 382.178 389.354 380.691 396.007C378.705 392.262 375.136 387.713 369.089 386.035Z" fill="black"/>
<path fill-rule="evenodd" clip-rule="evenodd" d="M421.688 319.77C421.688 319.77 437.627 318.475 441.66 323.52C445.692 328.565 446.683 354.052 446.683 354.052C446.683 354.052 458.12 309.135 468.925 299.016C479.727 288.899 487.18 290.252 492.194 289.995L494.456 284.267L511.557 281.067L512.332 285.707C512.332 285.707 534.5 273.991 549.416 281.469C564.335 288.946 572.484 302.993 574.323 338.097C576.158 373.198 576.576 445.134 495.41 474.516C495.41 474.516 480.321 430.101 465.349 417.001L518.134 389.318V382.855L479.008 394.136L474.872 365.993C472.132 380.865 463.167 390.317 453.26 394.317C453.26 394.317 450.259 396.289 442.945 380.106C433.576 359.383 421.688 319.77 421.688 319.77Z" fill="#A190F8"/>
<path fill-rule="evenodd" clip-rule="evenodd" d="M475.498 360.638L471.326 332.449C471.212 331.687 470.502 331.16 469.741 331.274C468.979 331.386 468.452 332.096 468.564 332.858L472.736 361.047C472.849 361.811 473.56 362.335 474.321 362.224C475.083 362.11 475.612 361.4 475.498 360.638Z" fill="black"/>
<path fill-rule="evenodd" clip-rule="evenodd" d="M519.531 382.851C519.531 382.851 519.346 337.764 522.921 320.48C526.414 303.59 531.779 297.236 531.779 297.236C532.281 296.651 532.212 295.769 531.627 295.268C531.041 294.766 530.159 294.835 529.659 295.42C529.659 295.42 523.877 302.08 520.188 319.915C516.578 337.358 516.739 382.862 516.739 382.862C516.744 383.632 517.371 384.255 518.142 384.253C518.912 384.249 519.535 383.621 519.531 382.851Z" fill="black"/>
<path fill-rule="evenodd" clip-rule="evenodd" d="M488.143 290.384L496.127 322.834C496.277 323.435 496.799 323.866 497.418 323.895C498.034 323.927 498.597 323.547 498.8 322.964L511.229 287.488C511.483 286.759 511.099 285.962 510.373 285.708C509.645 285.453 508.848 285.837 508.593 286.563L497.717 317.611L490.852 289.716C490.669 288.968 489.911 288.51 489.163 288.696C488.415 288.879 487.957 289.636 488.143 290.384Z" fill="black"/>
<path fill-rule="evenodd" clip-rule="evenodd" d="M479.275 291.213L475.17 317.115C475.074 317.722 475.386 318.323 475.942 318.591L487.616 324.224L483.076 333.32C482.843 333.782 482.888 334.334 483.187 334.756L497.436 354.668C497.883 355.296 498.756 355.441 499.381 354.992C500.009 354.543 500.154 353.672 499.705 353.045L485.948 333.813L490.747 324.206C490.912 323.871 490.939 323.484 490.819 323.131C490.698 322.776 490.441 322.486 490.104 322.325L478.089 316.527L482.033 291.65C482.153 290.889 481.633 290.174 480.871 290.054C480.112 289.933 479.395 290.453 479.275 291.213Z" fill="black"/>
<path fill-rule="evenodd" clip-rule="evenodd" d="M496.089 322.55L498.309 386.654C498.335 387.422 498.983 388.027 499.751 388C500.522 387.974 501.125 387.326 501.098 386.555L498.878 322.452C498.851 321.684 498.206 321.079 497.435 321.105C496.665 321.132 496.062 321.78 496.089 322.55Z" fill="black"/>
<path fill-rule="evenodd" clip-rule="evenodd" d="M499.789 355.275L515.346 329.501C515.646 329.003 515.608 328.373 515.248 327.915L510.237 321.552L519.071 313.534C519.362 313.269 519.53 312.893 519.53 312.5V283.137C519.53 282.366 518.902 281.741 518.134 281.741C517.363 281.741 516.738 282.366 516.738 283.137V311.882L507.398 320.36C506.855 320.851 506.786 321.679 507.239 322.256L512.459 328.884L497.399 353.833C496.999 354.492 497.212 355.349 497.873 355.749C498.532 356.146 499.389 355.934 499.789 355.275Z" fill="black"/>
<path fill-rule="evenodd" clip-rule="evenodd" d="M497.339 288.367L491.115 301.106C490.776 301.798 491.064 302.636 491.756 302.973C492.448 303.31 493.284 303.024 493.623 302.332L499.847 289.593C500.187 288.901 499.899 288.063 499.207 287.726C498.514 287.387 497.679 287.675 497.339 288.367Z" fill="black"/>
<path fill-rule="evenodd" clip-rule="evenodd" d="M497.388 289.685L504.041 301.046C504.432 301.711 505.287 301.935 505.951 301.544C506.616 301.155 506.84 300.3 506.451 299.634L499.798 288.276C499.409 287.61 498.552 287.387 497.888 287.775C497.223 288.164 497 289.022 497.388 289.685Z" fill="black"/>
<path fill-rule="evenodd" clip-rule="evenodd" d="M420.122 318.508L417.92 310.015C417.92 310.015 408.024 299.802 412.707 289.995C412.707 289.995 391.055 281.698 391.633 271.76C392.212 261.819 408.238 272.752 408.238 272.752L405.304 261.411C405.304 261.411 415.338 266.103 420.423 268.184C425.508 270.264 432.403 273.078 433.589 288.979C434.777 304.88 433.314 319.401 433.314 319.401C433.314 319.401 426.936 318.434 420.122 318.508Z" fill="white"/>
<path fill-rule="evenodd" clip-rule="evenodd" d="M418.772 318.857C418.932 319.48 419.498 319.911 420.139 319.902C426.834 319.833 433.105 320.782 433.105 320.782C433.483 320.84 433.869 320.74 434.171 320.505C434.472 320.271 434.664 319.922 434.704 319.543C434.704 319.543 436.178 304.905 434.983 288.877C434.358 280.508 432.174 275.602 429.534 272.495C426.852 269.342 423.672 268.004 420.954 266.892C415.891 264.821 405.896 260.145 405.896 260.145C405.407 259.917 404.829 259.991 404.414 260.337C403.998 260.681 403.817 261.237 403.953 261.76L406.026 269.773C403.826 268.536 400.755 267.028 398.017 266.45C395.634 265.947 393.479 266.177 392.057 267.405C391.074 268.256 390.361 269.603 390.241 271.678C390.047 275.032 391.996 278.275 394.971 281.094C399.962 285.83 407.784 289.437 410.881 290.755C409.506 294.605 410.006 298.449 411.207 301.756C412.844 306.256 415.772 309.723 416.657 310.705L418.772 318.857ZM421.202 317.108L419.272 309.665C419.212 309.432 419.091 309.218 418.923 309.046C418.923 309.046 415.567 305.575 413.832 300.803C412.724 297.752 412.273 294.145 413.968 290.596C414.135 290.246 414.149 289.842 414.003 289.48C413.858 289.118 413.57 288.832 413.206 288.694C413.206 288.694 405.597 285.779 399.634 281.353C397.716 279.928 395.967 278.349 394.732 276.651C393.624 275.128 392.93 273.52 393.028 271.841C393.093 270.735 393.356 269.972 393.883 269.518C394.725 268.79 396.03 268.882 397.441 269.181C401.959 270.135 407.451 273.904 407.451 273.904C407.931 274.233 408.565 274.228 409.041 273.893C409.517 273.558 409.736 272.964 409.59 272.401L407.395 263.919C410.745 265.462 416.451 268.066 419.895 269.476C422.262 270.445 425.07 271.555 427.406 274.302C429.782 277.098 431.636 281.551 432.199 289.084C433.154 301.897 432.377 313.807 432.051 317.825C429.918 317.564 425.726 317.131 421.202 317.108Z" fill="black"/>
<path fill-rule="evenodd" clip-rule="evenodd" d="M407.629 274.007C407.629 274.007 414.711 277.413 418.101 278.065C418.858 278.21 419.59 277.715 419.735 276.957C419.881 276.2 419.385 275.47 418.628 275.325C415.456 274.715 408.846 271.495 408.846 271.495C408.151 271.16 407.316 271.45 406.981 272.142C406.646 272.837 406.936 273.672 407.629 274.007Z" fill="black"/>
<path fill-rule="evenodd" clip-rule="evenodd" d="M394.904 221.284C394.904 221.284 510.584 195.144 541.25 187.756C571.885 180.375 610.78 172.81 610.78 172.81C611.535 172.663 612.031 171.93 611.883 171.174C611.736 170.417 611.004 169.923 610.246 170.07C610.246 170.07 571.284 177.648 540.595 185.042C509.936 192.428 394.29 218.561 394.29 218.561C393.537 218.731 393.066 219.479 393.236 220.23C393.406 220.981 394.154 221.454 394.904 221.284Z" fill="black"/>
<path d="M81.2402 269.901C83.7392 270.992 86.6496 269.85 87.7405 267.351C88.8315 264.852 87.69 261.942 85.191 260.851C82.6919 259.76 79.7816 260.901 78.6907 263.4C77.5997 265.899 78.7412 268.81 81.2402 269.901Z" fill="white"/>
<path fill-rule="evenodd" clip-rule="evenodd" d="M85.7501 259.571C82.5469 258.173 78.8099 259.638 77.4115 262.841C76.013 266.045 77.4792 269.781 80.6825 271.179C83.8857 272.578 87.6226 271.113 89.0211 267.909C90.4194 264.706 88.9533 260.97 85.7501 259.571ZM84.6332 262.13C86.4241 262.912 87.2445 265.001 86.4626 266.793C85.6805 268.584 83.5903 269.403 81.7994 268.621C80.0084 267.839 79.188 265.749 79.97 263.958C80.7519 262.167 82.8422 261.348 84.6332 262.13Z" fill="black"/>
<path d="M101.107 272.706C103.606 273.797 106.517 272.655 107.608 270.156C108.699 267.657 107.557 264.747 105.058 263.656C102.559 262.565 99.6488 263.707 98.5578 266.206C97.4669 268.705 98.6084 271.615 101.107 272.706Z" fill="white"/>
<path fill-rule="evenodd" clip-rule="evenodd" d="M105.617 262.376C102.414 260.978 98.6771 262.443 97.2787 265.646C95.8802 268.85 97.3464 272.586 100.55 273.985C103.753 275.383 107.49 273.918 108.888 270.715C110.287 267.511 108.821 263.775 105.617 262.376ZM104.5 264.935C106.291 265.717 107.112 267.807 106.33 269.598C105.548 271.389 103.458 272.208 101.667 271.426C99.8756 270.644 99.0551 268.555 99.8372 266.763C100.619 264.972 102.709 264.153 104.5 264.935Z" fill="black"/>
<path d="M119.85 275.904C122.349 276.994 125.259 275.853 126.35 273.354C127.441 270.855 126.299 267.945 123.8 266.854C121.301 265.763 118.391 266.904 117.3 269.403C116.209 271.902 117.351 274.813 119.85 275.904Z" fill="white"/>
<path fill-rule="evenodd" clip-rule="evenodd" d="M124.359 265.575C121.156 264.176 117.419 265.641 116.021 268.845C114.622 272.048 116.089 275.784 119.292 277.183C122.495 278.581 126.232 277.116 127.63 273.913C129.029 270.71 127.563 266.973 124.359 265.575ZM123.243 268.133C125.033 268.915 125.854 271.005 125.072 272.796C124.29 274.587 122.2 275.406 120.409 274.624C118.618 273.842 117.797 271.753 118.579 269.962C119.361 268.17 121.452 267.351 123.243 268.133Z" fill="black"/>
<path fill-rule="evenodd" clip-rule="evenodd" d="M465.35 417L400.183 452.81C400.183 452.81 378.053 453.402 373.747 455.856C369.441 458.31 338.255 507.022 335.001 511.334C331.747 515.647 339.227 525.4 347.532 521.362C347.532 521.362 352.356 533.004 361.85 528.346C361.85 528.346 368.162 537.96 375.697 533.295C383.234 528.627 417.467 500.315 417.467 500.315L492.94 467.69C486.921 448.468 477.845 431.484 465.35 417Z" fill="white"/>
<path fill-rule="evenodd" clip-rule="evenodd" d="M465.771 417.016L399.823 451.423C397.956 451.481 388.404 451.811 381.179 452.729C377.521 453.196 374.436 453.855 373.056 454.643C372.136 455.168 370.005 457.618 367.256 461.323C356.965 475.185 336.488 507.044 333.886 510.492C332.267 512.638 332.588 515.886 334.453 518.666C336.841 522.224 341.627 524.957 346.857 523.151C347.48 524.307 348.583 526.07 350.156 527.602C352.719 530.096 356.471 532.004 361.394 530.074C362.137 531.014 363.437 532.479 365.13 533.701C368.049 535.811 372.065 537.185 376.433 534.48C383.7 529.98 415.713 503.573 418.201 501.516L493.493 468.972C494.199 468.666 494.525 467.844 494.219 467.136C493.913 466.431 493.091 466.105 492.383 466.408L416.912 499.033C416.792 499.084 416.678 499.153 416.577 499.238C416.577 499.238 382.472 527.456 374.963 532.106C371.792 534.069 368.884 532.971 366.765 531.439C364.462 529.775 363.017 527.582 363.017 527.582C362.631 526.992 361.867 526.784 361.235 527.092C357.191 529.076 354.142 527.584 352.103 525.601C349.921 523.479 348.82 520.828 348.82 520.828C348.673 520.473 348.385 520.194 348.025 520.057C347.665 519.921 347.266 519.939 346.919 520.107C344.105 521.473 341.405 520.973 339.353 519.647C337.495 518.445 336.142 516.587 335.735 514.802C335.514 513.835 335.572 512.891 336.115 512.174C338.719 508.723 359.203 476.854 369.496 462.987C371.011 460.948 372.297 459.306 373.268 458.214C373.787 457.634 374.168 457.223 374.439 457.068C375.64 456.383 378.347 455.905 381.532 455.501C389.456 454.491 400.22 454.203 400.22 454.203C400.432 454.199 400.64 454.145 400.83 454.047L467.062 419.493C467.745 419.135 468.011 418.291 467.654 417.608C467.298 416.927 466.454 416.661 465.771 417.016Z" fill="black"/>
<path fill-rule="evenodd" clip-rule="evenodd" d="M618.991 310.035L622.325 316.096C622.698 316.771 623.547 317.017 624.222 316.646C624.896 316.275 625.144 315.424 624.771 314.75L621.437 308.688C621.066 308.014 620.217 307.768 619.54 308.139C618.866 308.51 618.62 309.358 618.991 310.035Z" fill="black"/>
<path fill-rule="evenodd" clip-rule="evenodd" d="M609.131 327.594L615.222 333.099C615.794 333.615 616.676 333.57 617.194 332.998C617.71 332.429 617.665 331.544 617.093 331.028L611.005 325.521C610.434 325.005 609.549 325.05 609.033 325.622C608.515 326.193 608.56 327.075 609.131 327.594Z" fill="black"/>
<path fill-rule="evenodd" clip-rule="evenodd" d="M605.764 348.227L611.649 349.82C612.392 350.021 613.158 349.581 613.359 348.837C613.56 348.093 613.12 347.325 612.377 347.124L606.494 345.532C605.75 345.331 604.982 345.771 604.781 346.514C604.58 347.258 605.02 348.026 605.764 348.227Z" fill="black"/>
<path fill-rule="evenodd" clip-rule="evenodd" d="M55.6787 275.97C55.6787 275.97 165.631 296.787 180.403 299.625C195.172 302.46 287.06 320.901 287.06 320.901C287.815 321.055 288.552 320.564 288.703 319.808C288.854 319.053 288.365 318.317 287.608 318.164C287.608 318.164 195.702 299.718 180.929 296.883C166.157 294.045 56.1984 273.229 56.1984 273.229C55.4412 273.084 54.7106 273.582 54.5662 274.339C54.4241 275.097 54.9215 275.828 55.6787 275.97Z" fill="black"/>
<path d="M166.215 239.441C184.934 239.441 200.109 224.266 200.109 205.547C200.109 186.827 184.934 171.652 166.215 171.652C147.495 171.652 132.32 186.827 132.32 205.547C132.32 224.266 147.495 239.441 166.215 239.441Z" fill="white"/>
<path fill-rule="evenodd" clip-rule="evenodd" d="M166.214 170.257C146.737 170.257 130.926 186.07 130.926 205.547C130.926 225.023 146.737 240.837 166.214 240.837C185.691 240.837 201.504 225.023 201.504 205.547C201.504 186.07 185.691 170.257 166.214 170.257ZM166.214 173.048C184.151 173.048 198.713 187.61 198.713 205.547C198.713 223.483 184.151 238.045 166.214 238.045C148.279 238.045 133.715 223.483 133.715 205.547C133.715 187.61 148.279 173.048 166.214 173.048Z" fill="black"/>
<path d="M166.222 232.234C180.961 232.234 192.908 220.286 192.908 205.548C192.908 190.81 180.961 178.862 166.222 178.862C151.484 178.862 139.536 190.81 139.536 205.548C139.536 220.286 151.484 232.234 166.222 232.234Z" fill="white"/>
<path fill-rule="evenodd" clip-rule="evenodd" d="M166.223 177.466C150.725 177.466 138.142 190.049 138.142 205.548C138.142 221.047 150.725 233.63 166.223 233.63C181.723 233.63 194.306 221.047 194.306 205.548C194.306 190.049 181.723 177.466 166.223 177.466ZM166.223 180.258C180.182 180.258 191.514 191.59 191.514 205.548C191.514 219.506 180.182 230.838 166.223 230.838C152.266 230.838 140.933 219.506 140.933 205.548C140.933 191.59 152.266 180.258 166.223 180.258Z" fill="black"/>
<path fill-rule="evenodd" clip-rule="evenodd" d="M91.5651 281.245L84.9773 303.392C84.7573 304.132 85.1771 304.909 85.9162 305.131C86.6556 305.349 87.4326 304.93 87.6526 304.19L94.2404 282.043C94.4604 281.304 94.0382 280.527 93.2988 280.309C92.5621 280.087 91.7824 280.51 91.5651 281.245Z" fill="black"/>
<path fill-rule="evenodd" clip-rule="evenodd" d="M60.3369 323.089L98.5403 332.69C98.5403 332.69 101.906 308.139 86.3105 303.791C70.7129 299.44 62.1303 317.246 60.3369 323.089Z" fill="#0ACF83"/>
<path fill-rule="evenodd" clip-rule="evenodd" d="M69.9735 325.51C69.9735 325.51 67.0635 334.092 75.2174 336.332C83.3713 338.57 86.0312 332.587 86.3104 329.617L69.9735 325.51Z" fill="white"/>
<path fill-rule="evenodd" clip-rule="evenodd" d="M70.3125 324.156C69.609 323.98 68.8854 324.373 68.6509 325.063C68.6509 325.063 65.3166 335.062 74.8484 337.677C78.5937 338.707 81.3251 338.157 83.2793 336.989C86.2809 335.198 87.5025 331.839 87.699 329.746C87.7638 329.061 87.3171 328.431 86.6493 328.261L70.3125 324.156ZM70.9959 327.207L84.6996 330.651C84.3222 332.015 83.4601 333.63 81.8498 334.593C80.3982 335.457 78.3637 335.747 75.5877 334.986C70.5828 333.612 70.6297 329.344 70.9959 327.207Z" fill="black"/>
<path fill-rule="evenodd" clip-rule="evenodd" d="M115.686 368.16C115.686 368.16 113.937 387.704 128.347 391.739C142.756 395.777 150.888 384.322 150.97 369.252L150.653 355.745L133.693 350.463L117.437 358.918L115.686 368.16Z" fill="white"/>
<path fill-rule="evenodd" clip-rule="evenodd" d="M114.314 367.898C114.305 367.943 114.299 367.99 114.296 368.035C114.296 368.035 113.638 375.405 116.369 382.216C118.256 386.913 121.72 391.333 127.969 393.084C134.218 394.835 139.37 393.848 143.319 391.047C149.092 386.953 152.314 378.815 152.366 369.259C152.366 369.245 152.366 369.232 152.366 369.218L152.049 355.713C152.035 355.113 151.64 354.59 151.068 354.411L134.108 349.13C133.758 349.02 133.376 349.054 133.05 349.226L116.793 357.679C116.414 357.877 116.146 358.237 116.065 358.657L114.314 367.898ZM117.07 368.345L118.683 359.843L133.827 351.966L149.281 356.781L149.574 369.263C149.523 377.783 146.852 385.12 141.704 388.769C138.367 391.136 134.001 391.876 128.724 390.397C122.086 388.537 119.223 383.058 117.966 378.094C116.753 373.299 117.028 368.921 117.07 368.347V368.345Z" fill="black"/>
<path fill-rule="evenodd" clip-rule="evenodd" d="M115.962 375.085C115.962 375.085 108.543 376.642 107.134 369.683C106.299 365.56 109.76 362.447 109.76 362.447C109.76 362.447 106.587 355.939 109.879 350.999C113.168 346.059 119.545 347.104 119.545 347.104C119.545 347.104 119.149 340.783 126.032 337.871C132.078 335.312 137.534 340.174 137.534 340.174C137.534 340.174 142.874 334.13 149.875 337.57C156.598 340.871 154.954 348.79 154.954 348.79C154.954 348.79 161.033 349.33 161.987 354.344C163.086 360.106 157.547 362.663 157.547 362.663C157.547 362.663 162.107 365.43 160.046 370.947C157.808 376.934 150.376 375.851 150.376 375.851C150.376 375.851 151.314 371.208 150.97 368.195C150.97 368.195 147.694 366.467 147.399 362.159C147.399 362.159 139.29 362.136 137.534 357.681C137.534 357.681 132.074 363.697 125.892 360.843C125.892 360.843 122.397 368.405 115.685 368.16C115.685 368.16 115.268 372.553 115.962 375.085Z" fill="black"/>
<path fill-rule="evenodd" clip-rule="evenodd" d="M116.249 376.452C116.626 376.374 116.952 376.141 117.153 375.813C117.354 375.485 117.41 375.087 117.31 374.717C116.888 373.178 116.917 370.902 116.988 369.513C119.454 369.267 121.495 368.126 123.092 366.746C124.731 365.328 125.881 363.666 126.531 362.583C129.633 363.548 132.512 362.733 134.692 361.562C135.717 361.011 136.579 360.385 137.229 359.854C138.256 361.082 139.732 361.94 141.296 362.496C143.096 363.139 144.978 363.391 146.169 363.49C146.761 366.509 148.619 368.242 149.635 368.988C149.782 371.804 149.01 375.576 149.01 375.576C148.934 375.952 149.014 376.342 149.235 376.655C149.456 376.968 149.796 377.178 150.175 377.234C150.175 377.234 152.268 377.546 154.678 377.008C157.201 376.443 160.033 374.971 161.353 371.436C162.923 367.239 161.284 364.372 159.861 362.826C161.693 361.399 164.212 358.554 163.359 354.083C162.783 351.05 160.686 349.344 158.7 348.421C157.894 348.046 157.112 347.805 156.485 347.651C156.645 344.964 156.264 339.151 150.493 336.317C144.407 333.328 139.426 336.64 137.43 338.351C135.397 336.967 130.629 334.409 125.488 336.585C119.905 338.948 118.551 343.303 118.237 345.627C115.892 345.621 111.407 346.186 108.716 350.224C105.815 354.581 107.347 360.026 108.135 362.152C107.025 363.463 105.044 366.395 105.766 369.96C107.445 378.25 116.249 376.452 116.249 376.452ZM114.321 373.852C112.472 373.879 109.297 373.33 108.501 369.406C107.816 366.024 110.695 363.485 110.695 363.485C111.157 363.07 111.289 362.395 111.016 361.837C111.016 361.837 109.991 359.72 109.808 357.067C109.692 355.385 109.911 353.466 111.041 351.771C113.855 347.548 119.32 348.482 119.32 348.482C119.74 348.549 120.166 348.424 120.481 348.138C120.796 347.854 120.966 347.441 120.939 347.017C120.939 347.017 120.675 341.652 126.576 339.157C131.853 336.924 136.606 341.214 136.606 341.214C136.883 341.462 137.247 341.59 137.617 341.567C137.988 341.545 138.334 341.375 138.58 341.098C138.58 341.098 143.199 335.845 149.26 338.822C155.049 341.665 153.588 348.506 153.588 348.506C153.505 348.895 153.595 349.301 153.834 349.621C154.07 349.942 154.434 350.145 154.83 350.179C154.83 350.179 156.125 350.302 157.525 350.952C158.818 351.555 160.239 352.624 160.616 354.605C161.516 359.318 156.963 361.397 156.963 361.397C156.494 361.611 156.183 362.069 156.154 362.585C156.125 363.101 156.382 363.59 156.824 363.856C156.824 363.856 160.377 366.076 158.738 370.46C157.822 372.912 155.819 373.89 154.068 374.283C153.313 374.451 152.601 374.513 152.016 374.529C152.275 372.818 152.59 370.074 152.357 368.037C152.304 367.579 152.029 367.177 151.623 366.962C151.623 366.962 149.03 365.538 148.791 362.063C148.742 361.332 148.136 360.765 147.402 360.763C147.402 360.763 144.724 360.756 142.234 359.867C140.804 359.356 139.388 358.579 138.832 357.167C138.656 356.718 138.261 356.394 137.785 356.307C137.309 356.22 136.825 356.385 136.501 356.743C136.501 356.743 135.277 358.078 133.372 359.101C131.561 360.075 129.097 360.785 126.478 359.575C125.778 359.253 124.948 359.557 124.624 360.258C124.624 360.258 123.485 362.715 121.265 364.633C119.869 365.841 118.027 366.849 115.737 366.764C114.998 366.737 114.366 367.291 114.297 368.026C114.297 368.026 114.009 371.21 114.321 373.852Z" fill="black"/>
<path fill-rule="evenodd" clip-rule="evenodd" d="M88.3635 485.082L92.3858 452.008L65.291 440.424C65.291 440.424 86.9878 408.21 102.503 401.834C118.02 395.458 152.433 398.406 166.255 407.402C180.075 416.395 198.945 452.403 198.945 452.403L162.133 465.468L158.032 497.892C135.804 494.332 112.664 490.122 88.3635 485.082Z" fill="#0261FE"/>
<path fill-rule="evenodd" clip-rule="evenodd" d="M93.7668 452.214L95.8416 438.104C95.9533 437.34 95.4262 436.632 94.6646 436.518C93.9008 436.406 93.1929 436.933 93.079 437.697L91.0042 451.807C90.8925 452.569 91.4196 453.279 92.1812 453.391C92.945 453.502 93.6529 452.975 93.7668 452.214Z" fill="black"/>
<path fill-rule="evenodd" clip-rule="evenodd" d="M202.067 357.983L182.019 367.625L201.106 368.793L201.025 369.701C200.538 375.189 204.591 380.033 210.079 380.523C227.958 382.112 265.356 385.438 283.236 387.03C288.724 387.519 293.571 383.466 294.058 377.978C294.911 368.395 296.194 353.975 297.045 344.392C297.534 338.904 293.481 334.06 287.993 333.571C270.111 331.982 232.715 328.655 214.833 327.064C209.345 326.575 204.501 330.628 204.012 336.116L202.067 357.983Z" fill="white"/>
<path fill-rule="evenodd" clip-rule="evenodd" d="M199.6 370.098C199.337 376.137 203.874 381.37 209.954 381.911C227.836 383.503 265.231 386.83 283.113 388.421C289.368 388.978 294.891 384.358 295.448 378.101C296.3 368.52 297.584 354.098 298.436 344.515C298.993 338.26 294.371 332.738 288.116 332.181C270.236 330.591 232.838 327.265 214.959 325.673C208.701 325.116 203.178 329.736 202.624 335.993L200.748 357.069L181.416 366.366C180.843 366.643 180.528 367.27 180.651 367.894C180.772 368.518 181.3 368.98 181.935 369.018L199.6 370.098ZM202.673 359.24C203.117 359.027 203.414 358.596 203.458 358.106L205.403 336.241C205.824 331.52 209.99 328.034 214.711 328.455C232.59 330.044 269.988 333.371 287.868 334.962C292.589 335.383 296.075 339.549 295.654 344.27C294.803 353.85 293.521 368.272 292.667 377.853C292.248 382.574 288.08 386.061 283.361 385.639L210.202 379.132C205.481 378.711 201.996 374.545 202.415 369.824L202.497 368.916C202.529 368.541 202.41 368.168 202.165 367.882C201.917 367.595 201.567 367.421 201.191 367.398L187.457 366.559L202.673 359.24Z" fill="black"/>
<path fill-rule="evenodd" clip-rule="evenodd" d="M221.318 347.02L278.168 352.077C278.937 352.146 279.615 351.578 279.684 350.811C279.752 350.043 279.185 349.364 278.416 349.296L221.565 344.238C220.797 344.17 220.118 344.738 220.05 345.505C219.982 346.272 220.549 346.951 221.318 347.02Z" fill="black"/>
<path fill-rule="evenodd" clip-rule="evenodd" d="M220.044 363.48L261.378 367.157C262.146 367.226 262.824 366.657 262.892 365.89C262.96 365.123 262.394 364.445 261.626 364.376L220.292 360.699C219.524 360.632 218.846 361.199 218.778 361.966C218.709 362.733 219.276 363.411 220.044 363.48Z" fill="black"/>
<path fill-rule="evenodd" clip-rule="evenodd" d="M188.158 435.146L260.676 446.972C261.436 447.097 262.155 446.581 262.278 445.819C262.403 445.06 261.885 444.341 261.125 444.218L188.607 432.39C187.847 432.265 187.128 432.783 187.005 433.543C186.883 434.304 187.398 435.021 188.158 435.146Z" fill="black"/>
<path fill-rule="evenodd" clip-rule="evenodd" d="M258.497 404.002C258.871 399.455 255.49 395.467 250.942 395.092C240.73 394.25 223.418 392.824 213.205 391.983C208.658 391.608 204.669 394.989 204.294 399.536C203.76 406.019 203.019 415.016 202.485 421.501C202.11 426.048 205.492 430.037 210.039 430.411C220.251 431.253 237.564 432.679 247.776 433.521C252.323 433.896 256.312 430.514 256.687 425.967C257.221 419.482 257.962 410.485 258.497 404.002Z" fill="white"/>
<path fill-rule="evenodd" clip-rule="evenodd" d="M259.889 404.117C260.327 398.802 256.373 394.138 251.058 393.7C240.845 392.859 223.533 391.432 213.321 390.591C208.005 390.153 203.341 394.107 202.903 399.421C202.369 405.905 201.628 414.901 201.093 421.387C200.656 426.701 204.609 431.365 209.925 431.803L247.662 434.913C252.977 435.351 257.641 431.396 258.079 426.082L259.889 404.117ZM257.108 403.888L255.298 425.853C254.987 429.631 251.67 432.443 247.891 432.131L210.154 429.022C206.375 428.711 203.563 425.394 203.875 421.616L205.685 399.65C205.996 395.871 209.312 393.061 213.091 393.372L250.828 396.482C254.608 396.793 257.419 400.108 257.108 403.888Z" fill="black"/>
<path fill-rule="evenodd" clip-rule="evenodd" d="M252.482 405.533C252.734 402.478 250.462 399.798 247.407 399.546C239.113 398.863 223.547 397.58 215.255 396.897C212.2 396.645 209.52 398.917 209.268 401.972C208.854 406.993 208.247 414.362 207.833 419.384C207.582 422.439 209.854 425.118 212.908 425.37C221.201 426.053 236.767 427.336 245.061 428.019C248.116 428.271 250.796 425.999 251.048 422.944C251.461 417.923 252.069 410.554 252.482 405.533Z" fill="white"/>
<path fill-rule="evenodd" clip-rule="evenodd" d="M253.874 405.647C254.189 401.823 251.346 398.47 247.522 398.155C239.228 397.471 223.662 396.189 215.37 395.505C211.546 395.19 208.192 398.033 207.877 401.857C207.463 406.879 206.856 414.247 206.442 419.269C206.127 423.092 208.97 426.446 212.794 426.761C221.086 427.444 236.653 428.727 244.947 429.41C248.771 429.725 252.125 426.882 252.44 423.059L253.874 405.647ZM251.091 405.418L249.657 422.829C249.468 425.116 247.464 426.816 245.176 426.629L213.023 423.98C210.736 423.79 209.035 421.784 209.224 419.498L210.658 402.086C210.847 399.8 212.853 398.098 215.14 398.287L247.293 400.936C249.58 401.124 251.28 403.131 251.091 405.418Z" fill="black"/>
<path fill-rule="evenodd" clip-rule="evenodd" d="M244.984 452.602C245.058 451.692 244.769 450.791 244.18 450.094C243.589 449.398 242.746 448.965 241.837 448.89C235.661 448.382 222.738 447.317 216.561 446.808C215.651 446.733 214.749 447.022 214.054 447.612C213.358 448.202 212.925 449.045 212.85 449.954C212.85 449.955 212.85 449.955 212.85 449.955C212.775 450.865 213.064 451.766 213.654 452.462C214.244 453.159 215.086 453.591 215.996 453.666C222.173 454.175 235.096 455.24 241.272 455.749C242.181 455.824 243.083 455.535 243.78 454.944C244.476 454.354 244.909 453.512 244.983 452.603C244.983 452.602 244.983 452.602 244.984 452.602Z" fill="white"/>
<path fill-rule="evenodd" clip-rule="evenodd" d="M246.375 452.716C246.481 451.438 246.073 450.17 245.244 449.191C244.415 448.213 243.231 447.604 241.952 447.499C235.776 446.99 222.852 445.925 216.675 445.416C215.397 445.311 214.13 445.717 213.151 446.547C212.173 447.377 211.564 448.561 211.458 449.839C211.458 449.84 211.458 449.84 211.458 449.84C211.353 451.118 211.761 452.386 212.589 453.365C213.419 454.343 214.603 454.952 215.881 455.057C222.058 455.566 234.981 456.631 241.157 457.14C242.436 457.245 243.704 456.838 244.683 456.009C245.66 455.179 246.27 453.995 246.375 452.717L246.375 452.716ZM243.593 452.487L243.593 452.488C243.548 453.028 243.291 453.529 242.877 453.879C242.464 454.23 241.927 454.402 241.386 454.358C235.211 453.849 222.287 452.784 216.11 452.275C215.57 452.231 215.07 451.973 214.719 451.559C214.368 451.146 214.196 450.61 214.241 450.069C214.241 450.069 214.241 450.069 214.241 450.068C214.286 449.528 214.543 449.027 214.956 448.677C215.37 448.326 215.906 448.154 216.446 448.198C222.623 448.707 235.547 449.772 241.722 450.281C242.263 450.325 242.764 450.583 243.115 450.997C243.465 451.41 243.637 451.946 243.593 452.487Z" fill="black"/>
<path d="M238.495 432.758L220.352 431.263L219.09 446.575L237.233 448.07L238.495 432.758Z" fill="white"/>
<path fill-rule="evenodd" clip-rule="evenodd" d="M239.886 432.872C239.95 432.103 239.378 431.429 238.61 431.366L220.467 429.871C219.699 429.808 219.024 430.379 218.961 431.148L217.699 446.46C217.636 447.229 218.208 447.903 218.976 447.966L237.119 449.461C237.887 449.524 238.561 448.953 238.625 448.184L239.886 432.872ZM236.989 434.033L235.957 446.564L220.596 445.299L221.629 432.768L236.989 434.033Z" fill="black"/>
<path fill-rule="evenodd" clip-rule="evenodd" d="M197.305 452.627L209.481 467.358C209.481 467.358 239.314 470.565 259.948 473.428C280.581 476.291 307.578 477.165 318.3 472.434C329.02 467.706 345.024 457.007 358.811 459.858C372.597 462.713 395.317 465.154 397.251 470.364C399.185 475.577 386.267 484.47 368.144 479.28C368.144 479.28 362.632 490.953 348.7 491.331C348.7 491.331 339.363 504.286 336.736 508.833C334.11 513.383 332.18 513.266 337.328 519.852C337.328 519.852 263.822 527.26 216.491 523.674C182.603 521.105 178.545 515.529 172.394 504.242C166.244 492.956 160.674 476.999 160.674 476.999L162.132 465.469L197.305 452.627Z" fill="white"/>
<path fill-rule="evenodd" clip-rule="evenodd" d="M348.636 489.937C346.066 490.058 343.015 489.743 339.535 489.064C338.778 488.914 338.044 489.408 337.896 490.165C337.749 490.92 338.242 491.655 338.999 491.802C342.731 492.532 346.01 492.854 348.766 492.726C349.536 492.691 350.13 492.036 350.095 491.266C350.059 490.498 349.407 489.901 348.636 489.937Z" fill="black"/>
<path fill-rule="evenodd" clip-rule="evenodd" d="M348.573 522.291L363.46 505.583C363.971 505.007 363.92 504.125 363.346 503.611C362.77 503.1 361.888 503.151 361.374 503.725L346.489 520.435C345.975 521.009 346.027 521.893 346.603 522.405C347.177 522.916 348.061 522.867 348.573 522.291Z" fill="black"/>
<path fill-rule="evenodd" clip-rule="evenodd" d="M362.623 529.188L375.624 514.597C376.135 514.021 376.086 513.138 375.51 512.626C374.936 512.113 374.051 512.163 373.538 512.738L360.539 527.332C360.026 527.905 360.077 528.789 360.652 529.302C361.228 529.814 362.11 529.763 362.623 529.188Z" fill="black"/>
<path fill-rule="evenodd" clip-rule="evenodd" d="M397.371 522.446C397.371 522.446 385.988 511.655 381.51 512.346C377.032 513.038 374.354 518.295 374.596 520.908C374.84 523.519 384.669 532.089 390.461 532.729C396.256 533.369 401.005 524.492 397.371 522.446Z" fill="white"/>
<path fill-rule="evenodd" clip-rule="evenodd" d="M398.216 521.325C397.387 520.55 392.207 515.778 387.629 513.026C385.191 511.561 382.862 510.725 381.297 510.967C378.667 511.371 376.544 513.082 375.135 515.112C373.721 517.152 373.062 519.496 373.206 521.038C373.25 521.506 373.46 522.119 373.883 522.809C374.348 523.569 375.087 524.486 376.031 525.461C379.569 529.124 386.01 533.642 390.309 534.117C394.403 534.569 398.137 531.098 399.477 527.639C400.498 525.009 400.086 522.5 398.216 521.325ZM396.41 523.459C396.493 523.536 396.585 523.605 396.685 523.661C397.016 523.849 397.168 524.178 397.221 524.555C397.306 525.174 397.16 525.895 396.875 526.63C395.939 529.045 393.474 531.658 390.615 531.342C386.802 530.921 381.178 526.772 378.038 523.524C377.265 522.721 376.646 521.977 376.265 521.354C376.123 521.121 376 520.938 375.986 520.779C375.885 519.708 376.446 518.118 377.429 516.704C378.419 515.276 379.874 514.011 381.722 513.726C382.087 513.67 382.514 513.751 382.991 513.893C383.954 514.178 385.05 514.732 386.191 515.42C390.963 518.287 396.41 523.459 396.41 523.459Z" fill="black"/>
<path fill-rule="evenodd" clip-rule="evenodd" d="M176.093 194.393C173.966 192.24 171.072 189.847 168.046 189.16C165.687 188.625 162.5 189.211 160.232 190.775C158.591 191.908 157.431 193.529 157.236 195.531C156.895 199.048 159.494 201.865 162.244 203.561C165.248 205.415 168.442 206.61 170.974 209.181C171.933 210.156 172.892 211.285 173.121 212.669C173.425 214.5 172.418 215.867 171.019 216.771C169.416 217.806 167.297 218.278 165.578 218.116C161.935 217.774 159.601 215.055 157.612 212.238C157.167 211.61 156.297 211.459 155.667 211.904C155.038 212.349 154.889 213.22 155.332 213.85C157.79 217.325 160.818 220.474 165.318 220.896C167.598 221.109 170.408 220.489 172.532 219.117C174.861 217.613 176.381 215.26 175.875 212.212C175.552 210.26 174.318 208.598 172.963 207.222C170.269 204.487 166.906 203.158 163.708 201.186C161.811 200.015 159.778 198.228 160.014 195.801C160.127 194.636 160.864 193.732 161.819 193.072C163.447 191.949 165.733 191.497 167.429 191.882C169.961 192.458 172.326 194.552 174.107 196.356C174.65 196.903 175.534 196.909 176.082 196.367C176.63 195.826 176.634 194.941 176.093 194.393Z" fill="black"/>
<path fill-rule="evenodd" clip-rule="evenodd" d="M169.371 187.886C166.233 198.939 161.33 209.407 158.736 220.633C158.563 221.384 159.031 222.133 159.782 222.306C160.532 222.482 161.282 222.013 161.455 221.262C164.039 210.081 168.93 199.658 172.057 188.649C172.269 187.907 171.837 187.135 171.097 186.924C170.355 186.714 169.582 187.145 169.371 187.886Z" fill="black"/>
<path fill-rule="evenodd" clip-rule="evenodd" d="M618.356 207.137L633.891 179.541C595.989 159.315 523.151 120.754 523.151 120.754L490.502 122.026L506.354 149.628L618.356 207.137Z" fill="white"/>
<path fill-rule="evenodd" clip-rule="evenodd" d="M617.719 208.379C618.385 208.721 619.204 208.475 619.573 207.822L635.117 180.226C635.296 179.899 635.34 179.511 635.229 179.15C635.117 178.79 634.871 178.487 634.548 178.31C596.646 158.083 523.805 119.52 523.805 119.52C523.589 119.405 523.343 119.35 523.097 119.359L490.448 120.632C489.961 120.651 489.517 120.923 489.28 121.351C489.046 121.778 489.05 122.298 489.291 122.722L505.144 150.323C505.278 150.557 505.476 150.746 505.718 150.87L617.719 208.379ZM617.8 205.282C617.8 205.282 514.316 152.147 507.359 148.575C507.359 148.575 496.474 129.62 492.863 123.331L522.832 122.164C528.118 124.963 595.265 160.518 631.972 180.101L617.8 205.282Z" fill="black"/>
<path fill-rule="evenodd" clip-rule="evenodd" d="M498.685 134.731L505.043 122.138C505.392 121.45 505.115 120.61 504.427 120.263C503.739 119.916 502.899 120.192 502.551 120.879L496.193 133.473C495.844 134.161 496.121 135.001 496.809 135.348C497.497 135.696 498.336 135.419 498.685 134.731Z" fill="black"/>
<path fill-rule="evenodd" clip-rule="evenodd" d="M506.99 150.87L518.607 144.921C519.195 144.621 519.49 143.951 519.318 143.315L517.071 134.989L524.669 132.32C525.279 132.105 525.66 131.502 525.593 130.86L524.539 120.611C524.461 119.845 523.776 119.287 523.01 119.366C522.241 119.445 521.685 120.131 521.763 120.897L522.704 130.051L514.922 132.785C514.235 133.027 513.848 133.76 514.038 134.466L516.33 142.952L505.717 148.386C505.031 148.737 504.761 149.578 505.112 150.264C505.462 150.95 506.304 151.221 506.99 150.87Z" fill="black"/>
<path fill-rule="evenodd" clip-rule="evenodd" d="M523.536 132.227L627.954 189.288C628.63 189.658 629.477 189.409 629.848 188.733C630.216 188.057 629.968 187.208 629.291 186.838L524.874 129.777C524.2 129.408 523.351 129.657 522.98 130.333C522.612 131.009 522.86 131.858 523.536 132.227Z" fill="black"/>
<path fill-rule="evenodd" clip-rule="evenodd" d="M517.337 144.922L622.811 198.836C623.496 199.187 624.338 198.915 624.689 198.229C625.039 197.543 624.767 196.701 624.081 196.35L518.605 142.436C517.92 142.085 517.08 142.357 516.727 143.043C516.377 143.729 516.649 144.571 517.337 144.922Z" fill="black"/>
<path d="M132.18 370.398C132.881 370.398 133.449 369.83 133.449 369.129C133.449 368.428 132.881 367.86 132.18 367.86C131.479 367.86 130.911 368.428 130.911 369.129C130.911 369.83 131.479 370.398 132.18 370.398Z" fill="black"/>
<path d="M143.102 370.969C143.803 370.969 144.371 370.401 144.371 369.7C144.371 368.999 143.803 368.431 143.102 368.431C142.401 368.431 141.833 368.999 141.833 369.7C141.833 370.401 142.401 370.969 143.102 370.969Z" fill="black"/>
<path fill-rule="evenodd" clip-rule="evenodd" d="M54.4775 477.265C54.4775 477.265 59.766 469.241 68.4291 466.889C77.0922 464.537 90.2488 462.197 97.5809 472.282C104.913 482.368 105.724 488.709 105.724 488.709L92.3839 486.116C92.3839 486.116 92.7524 498.928 88.0557 501.698C83.359 504.467 80.9627 499.118 81.1882 494.783C81.1882 494.783 78.9101 501.291 75.1849 501.106C71.462 500.923 71.0533 495.002 71.0533 495.002C71.0533 495.002 70.7429 501.887 65.2891 500.858C61.3205 500.107 58.9084 486.658 58.3412 478.48L54.4775 477.265Z" fill="white"/>
<path fill-rule="evenodd" clip-rule="evenodd" d="M71.0132 499.759C71.8596 501.239 73.1817 502.405 75.118 502.501C77.0476 502.595 78.7382 501.414 80.0001 499.828C80.1408 499.649 80.2792 499.468 80.4088 499.283C80.6835 500.105 81.0475 500.866 81.492 501.51C82.4679 502.919 83.8213 503.803 85.4762 503.852C86.4477 503.881 87.551 503.616 88.7659 502.899C90.4297 501.918 91.6313 499.922 92.3929 497.534C93.4582 494.186 93.7172 490.084 93.773 487.808L105.458 490.077C105.898 490.164 106.351 490.032 106.677 489.727C107.006 489.421 107.164 488.974 107.108 488.529C107.108 488.529 106.318 481.925 98.7087 471.46C94.7713 466.044 89.2841 463.938 83.6047 463.529C78.1531 463.136 72.5296 464.329 68.063 465.542C58.9085 468.025 53.3117 476.496 53.3117 476.496C53.0705 476.86 53.0147 477.318 53.1621 477.731C53.3073 478.144 53.6401 478.464 54.0577 478.596L57.0214 479.527C57.5015 485.336 58.8237 493.217 60.8694 497.807C61.4947 499.209 62.2004 500.328 62.9485 501.063C63.6007 501.708 64.3065 502.092 65.0301 502.229C68.1054 502.809 69.9323 501.472 71.0132 499.759ZM56.7802 476.525C58.6919 474.198 62.9195 469.83 68.7954 468.235C72.9941 467.096 78.2782 465.944 83.4037 466.312C88.3014 466.667 93.0562 468.434 96.4508 473.102C101.139 479.549 103.079 484.396 103.854 486.921L92.6519 484.746C92.2342 484.666 91.8055 484.777 91.4817 485.052C91.1578 485.327 90.9769 485.733 90.9903 486.155C90.9903 486.155 91.1176 490.597 90.2444 494.727C89.9652 496.038 89.5878 497.32 89.0563 498.399C88.6119 499.305 88.0735 500.067 87.3477 500.496C86.4097 501.05 85.6236 501.199 84.9648 500.945C84.2814 500.677 83.7856 500.036 83.4082 499.267C82.7784 497.994 82.5036 496.353 82.5818 494.854C82.6175 494.162 82.1397 493.546 81.4585 493.412C80.7751 493.278 80.1005 493.666 79.8705 494.32C79.8705 494.32 79.1336 496.435 77.8159 498.09C77.128 498.952 76.3061 499.763 75.2542 499.712C74.3051 499.665 73.7467 498.966 73.3559 498.227C72.5675 496.732 72.4447 494.906 72.4447 494.906C72.3955 494.169 71.777 493.599 71.0355 493.608C70.2963 493.615 69.691 494.2 69.6575 494.939C69.6575 494.939 69.5928 496.382 68.9563 497.715C68.4292 498.818 67.4376 499.841 65.5482 499.484C65.2266 499.424 64.9586 499.16 64.6772 498.825C64.2238 498.285 63.8107 497.548 63.4199 496.67C61.3674 492.065 60.1212 483.962 59.7349 478.383C59.6947 477.809 59.3082 477.32 58.761 477.148L56.7802 476.525Z" fill="black"/>
<path fill-rule="evenodd" clip-rule="evenodd" d="M72.4509 495.009L72.509 481.664C72.5112 480.894 71.8903 480.266 71.1198 480.264C70.3493 480.26 69.7196 480.883 69.7173 481.653L69.6592 494.997C69.6547 495.768 70.2779 496.396 71.0484 496.398C71.8189 496.402 72.4464 495.779 72.4509 495.009Z" fill="black"/>
<path fill-rule="evenodd" clip-rule="evenodd" d="M82.5807 494.883L83.3646 484.101C83.4204 483.333 82.842 482.663 82.0738 482.607C81.3055 482.551 80.6355 483.129 80.5797 483.898L79.7957 494.68C79.7399 495.448 80.3183 496.118 81.0888 496.174C81.8549 496.23 82.5249 495.652 82.5807 494.883Z" fill="black"/>
<path fill-rule="evenodd" clip-rule="evenodd" d="M114.469 400.709L113.142 410.334C113.073 410.83 113.276 411.324 113.669 411.63C114.067 411.936 114.594 412.007 115.056 411.815L133.066 404.398L147.708 416.119C148.096 416.431 148.623 416.512 149.088 416.329C149.555 416.146 149.885 415.73 149.959 415.237L151.752 403.244C151.866 402.482 151.339 401.772 150.577 401.656C149.816 401.542 149.103 402.069 148.989 402.83L147.558 412.423L134.167 401.703C133.769 401.385 133.233 401.309 132.762 401.502L116.24 408.309L117.234 401.088C117.339 400.327 116.805 399.621 116.041 399.516C115.28 399.411 114.574 399.945 114.469 400.709Z" fill="black"/>
<path fill-rule="evenodd" clip-rule="evenodd" d="M131.903 402.669L130.179 422.102C130.112 422.868 130.679 423.547 131.445 423.616C132.214 423.683 132.893 423.116 132.96 422.347L134.684 402.915C134.753 402.149 134.184 401.47 133.418 401.403C132.649 401.334 131.97 401.901 131.903 402.669Z" fill="black"/>
<path fill-rule="evenodd" clip-rule="evenodd" d="M163.516 465.645L166.306 443.733C166.404 442.969 165.861 442.27 165.097 442.172C164.334 442.076 163.634 442.617 163.536 443.38L160.747 465.292C160.649 466.055 161.191 466.754 161.955 466.853C162.719 466.949 163.418 466.408 163.516 465.645Z" fill="black"/>
<path fill-rule="evenodd" clip-rule="evenodd" d="M125.407 373.636C125.407 373.636 125.834 376.923 128.683 379.215C130.495 380.671 133.311 381.779 137.715 381.198C138.479 381.097 139.017 380.396 138.917 379.632C138.816 378.869 138.115 378.33 137.351 378.431C133.99 378.873 131.815 378.149 130.432 377.039C128.494 375.481 128.174 373.263 128.174 373.263C128.072 372.499 127.368 371.963 126.604 372.066C125.84 372.169 125.304 372.872 125.407 373.636Z" fill="black"/>
<path fill-rule="evenodd" clip-rule="evenodd" d="M137.535 370.947C137.535 370.947 150.008 376.025 151.395 376.588C154.803 377.973 154.363 382.781 148.777 380.992C143.589 379.331 135.936 375.382 135.936 375.382" fill="white"/>
<path fill-rule="evenodd" clip-rule="evenodd" d="M137.007 372.24C137.007 372.24 149.483 377.319 150.869 377.882C151.481 378.132 151.91 378.538 152.087 378.994C152.18 379.239 152.212 379.503 152.049 379.686C151.903 379.851 151.66 379.929 151.347 379.97C150.787 380.041 150.077 379.943 149.203 379.664C144.1 378.029 136.576 374.141 136.576 374.141C135.89 373.788 135.048 374.056 134.696 374.741C134.34 375.425 134.611 376.269 135.294 376.622C135.294 376.622 143.077 380.633 148.35 382.321C151.361 383.286 153.232 382.558 154.134 381.542C155.662 379.825 155.021 376.555 151.919 375.295C150.532 374.733 138.059 369.656 138.059 369.656C137.347 369.366 136.531 369.707 136.241 370.422C135.951 371.135 136.292 371.95 137.007 372.24Z" fill="black"/>
<path fill-rule="evenodd" clip-rule="evenodd" d="M196.228 453.516L208.404 468.247C208.636 468.528 208.969 468.707 209.331 468.745C209.331 468.745 239.139 471.95 259.755 474.81C280.657 477.712 308.001 478.502 318.862 473.712C324.213 471.351 330.882 467.499 337.935 464.593C344.735 461.795 351.893 459.852 358.526 461.225C368.132 463.213 382.095 464.99 390.266 467.664C392.216 468.3 393.82 468.979 394.901 469.743C395.408 470.1 395.789 470.444 395.941 470.851C396.194 471.53 395.984 472.291 395.512 473.068C394.88 474.111 393.779 475.141 392.314 476.07C387.502 479.114 378.905 480.91 368.527 477.937C367.87 477.75 367.174 478.064 366.881 478.683C366.881 478.683 361.704 489.582 348.662 489.937C348.226 489.948 347.822 490.162 347.567 490.515C347.567 490.515 338.172 503.558 335.527 508.136C334.741 509.496 334.018 510.437 333.528 511.265C333.093 512.004 332.818 512.683 332.731 513.409C332.62 514.314 332.783 515.314 333.45 516.625C333.754 517.221 334.172 517.9 334.73 518.7C321.596 519.937 258.714 525.474 216.596 522.282C196.692 520.772 187.276 518.298 181.648 514.099C177.979 511.361 175.974 507.893 173.62 503.574C168.014 493.291 162.9 479.101 162.1 476.845L163.516 465.643C163.612 464.879 163.072 464.18 162.306 464.084C161.542 463.985 160.843 464.528 160.747 465.292L159.288 476.823C159.261 477.037 159.284 477.254 159.355 477.459C159.355 477.459 164.97 493.537 171.167 504.909C173.733 509.619 175.98 513.353 179.978 516.337C185.849 520.717 195.625 523.493 216.383 525.065C263.813 528.661 337.468 521.241 337.468 521.241C337.973 521.19 338.411 520.868 338.612 520.399C338.81 519.933 338.741 519.392 338.426 518.993C337.214 517.44 336.412 516.288 335.938 515.359C335.601 514.696 335.445 514.206 335.5 513.749C335.561 513.257 335.831 512.828 336.17 512.301C336.648 511.555 337.274 510.693 337.944 509.532C340.231 505.575 347.639 495.205 349.437 492.699C361.164 492.07 367.082 483.858 368.835 480.914C381.657 484.244 391.834 480.747 396.205 476.581C398.536 474.357 399.298 471.869 398.559 469.879C398.244 469.033 397.567 468.209 396.513 467.463C395.256 466.574 393.404 465.752 391.133 465.011C382.883 462.313 368.791 460.499 359.094 458.491C353.343 457.301 347.221 458.34 341.233 460.37C332.575 463.302 324.198 468.307 317.734 471.157C307.153 475.824 280.505 474.871 260.139 472.046C241.158 469.41 214.398 466.487 210.195 466.031L198.378 451.736C197.889 451.144 197.007 451.059 196.413 451.55C195.819 452.042 195.736 452.922 196.228 453.516Z" fill="black"/>
<path fill-rule="evenodd" clip-rule="evenodd" d="M406.995 513.019C406.995 513.019 394.794 501.453 389.995 502.194C385.195 502.936 382.325 508.571 382.585 511.371C382.846 514.169 393.38 523.355 399.589 524.041C405.8 524.726 410.89 515.212 406.995 513.019Z" fill="white"/>
<path fill-rule="evenodd" clip-rule="evenodd" d="M407.839 511.899C406.977 511.092 401.416 505.965 396.502 503.01C393.914 501.453 391.444 500.56 389.782 500.815C386.993 501.246 384.74 503.063 383.245 505.214C381.745 507.378 381.043 509.864 381.195 511.501C381.24 511.992 381.463 512.633 381.905 513.357C382.401 514.165 383.19 515.144 384.195 516.182C387.973 520.095 394.848 524.923 399.437 525.428C403.781 525.908 407.736 522.219 409.161 518.549C410.233 515.78 409.813 513.131 407.839 511.899ZM406.034 514.031C406.117 514.11 406.208 514.179 406.309 514.235C406.693 514.451 406.872 514.829 406.932 515.266C407.028 515.943 406.87 516.736 406.557 517.54C405.539 520.166 402.852 522.998 399.743 522.654C395.638 522.201 389.581 517.741 386.202 514.244C385.367 513.377 384.699 512.575 384.288 511.901C384.125 511.635 383.991 511.423 383.973 511.242C383.866 510.078 384.469 508.345 385.539 506.807C386.615 505.254 388.197 503.885 390.207 503.575C390.611 503.512 391.084 503.599 391.612 503.756C392.648 504.064 393.831 504.663 395.064 505.402C400.185 508.482 406.034 514.031 406.034 514.031Z" fill="black"/>
<path fill-rule="evenodd" clip-rule="evenodd" d="M416.325 501.258C416.325 501.258 404.124 489.691 399.325 490.433C394.525 491.174 391.656 496.809 391.915 499.609C392.176 502.408 402.71 511.593 408.919 512.279C415.13 512.965 420.22 503.451 416.325 501.258Z" fill="white"/>
<path fill-rule="evenodd" clip-rule="evenodd" d="M417.17 500.136C416.308 499.33 410.747 494.202 405.833 491.248C403.245 489.691 400.775 488.798 399.113 489.052C396.324 489.483 394.071 491.301 392.577 493.452C391.076 495.616 390.374 498.102 390.526 499.739C390.571 500.23 390.794 500.871 391.237 501.595C391.732 502.403 392.521 503.381 393.526 504.42C397.304 508.333 404.179 513.161 408.768 513.666C413.112 514.146 417.067 510.457 418.492 506.787C419.564 504.018 419.144 501.369 417.17 500.136ZM415.365 502.269C415.448 502.347 415.54 502.417 415.64 502.472C416.024 502.689 416.203 503.066 416.263 503.504C416.359 504.181 416.201 504.974 415.888 505.778C414.87 508.404 412.183 511.236 409.074 510.892C404.969 510.439 398.913 505.979 395.534 502.481C394.698 501.615 394.03 500.813 393.619 500.139C393.456 499.873 393.322 499.661 393.305 499.48C393.197 498.316 393.8 496.583 394.87 495.044C395.947 493.492 397.528 492.123 399.538 491.813C399.942 491.75 400.416 491.837 400.943 491.994C401.979 492.302 403.162 492.9 404.395 493.64C409.516 496.719 415.365 502.269 415.365 502.269Z" fill="black"/>
<path fill-rule="evenodd" clip-rule="evenodd" d="M474.118 253.123C474.118 253.123 479.007 271.702 480.342 279.381C481.676 287.057 489.425 294.284 498.935 286.936C498.935 286.936 504.809 289.647 511.306 286.342C517.802 283.034 518.488 270.307 518.526 261.083C518.526 261.083 529.007 261.882 529.389 252.947C529.737 244.773 521.443 243.303 518.526 244.851L509.039 239.877L479.268 245.467L474.118 253.123Z" fill="white"/>
<path fill-rule="evenodd" clip-rule="evenodd" d="M472.959 252.344C472.736 252.677 472.666 253.09 472.767 253.478C472.767 253.478 477.638 271.975 478.966 279.62C479.857 284.743 483.379 289.636 488.291 291.005C491.415 291.876 495.143 291.38 499.151 288.513C501.094 289.176 506.303 290.453 511.937 287.584C514.841 286.107 516.784 283.003 517.978 279.086C519.486 274.132 519.843 267.857 519.91 262.479C521.027 262.427 522.639 262.246 524.268 261.686C527.387 260.614 530.559 258.231 530.782 253.007C531.07 246.314 526.389 243.473 522.391 242.988C520.962 242.814 519.62 242.957 518.59 243.31L509.686 238.642C509.407 238.495 509.09 238.448 508.779 238.506L479.011 244.094C478.643 244.163 478.319 244.378 478.109 244.688L472.959 252.344ZM475.628 253.38L480.101 246.731L508.82 241.338L517.876 246.088C518.284 246.303 518.771 246.3 519.18 246.084C519.859 245.724 520.917 245.619 522.054 245.758C524.893 246.104 528.196 248.136 527.995 252.889C527.836 256.598 525.576 258.285 523.361 259.046C520.973 259.866 518.631 259.692 518.631 259.692C518.244 259.662 517.862 259.796 517.579 260.058C517.293 260.321 517.13 260.69 517.13 261.078C517.107 266.485 516.875 273.125 515.307 278.271C514.363 281.373 512.967 283.928 510.671 285.098C504.813 288.077 499.52 285.67 499.52 285.67C499.046 285.451 498.493 285.513 498.082 285.83C494.725 288.426 491.638 289.042 489.041 288.316C485.124 287.224 482.428 283.229 481.718 279.142C480.521 272.261 476.483 256.656 475.628 253.38Z" fill="black"/>
<path fill-rule="evenodd" clip-rule="evenodd" d="M518.518 245.311C518.518 245.311 518.825 237.736 515.287 233.593C511.747 229.45 503.765 229.725 500.44 234.446C500.44 234.446 490.495 225.338 481.072 231.516C471.65 237.693 472.282 250.533 457.419 248.136C457.419 248.136 470.156 260.147 485.546 249.635C485.546 249.635 490.117 259.151 502.898 244.574C502.898 244.574 511.731 254.204 518.518 245.311Z" fill="black"/>
<path fill-rule="evenodd" clip-rule="evenodd" d="M519.629 246.157C519.801 245.93 519.901 245.655 519.913 245.367C519.913 245.367 520.183 237.175 516.348 232.686C514.309 230.299 511.004 229.139 507.714 229.3C504.934 229.439 502.187 230.515 500.253 232.496C499.12 231.639 497.204 230.352 494.819 229.374C490.797 227.721 485.481 226.958 480.307 230.35C476.371 232.929 474.087 236.594 471.804 239.938C469.995 242.586 468.211 245.03 465.265 246.24C463.322 247.04 460.888 247.283 457.641 246.758C457.038 246.662 456.439 246.97 456.166 247.52C455.896 248.069 456.017 248.733 456.461 249.152C456.461 249.152 469.354 261.353 485.175 251.542C485.944 252.444 487.234 253.55 489.151 253.938C491.991 254.517 496.543 253.523 502.977 246.575C503.647 247.163 504.592 247.911 505.724 248.592C507.922 249.909 510.794 250.932 513.74 250.265C515.714 249.816 517.751 248.619 519.629 246.157ZM517.134 244.813C515.834 246.394 514.477 247.234 513.119 247.542C510.923 248.04 508.799 247.183 507.162 246.198C505.219 245.032 503.929 243.629 503.929 243.629C503.661 243.337 503.281 243.174 502.883 243.178C502.488 243.183 502.113 243.355 501.852 243.654C498.81 247.122 496.27 249.175 494.151 250.276C492.304 251.238 490.846 251.435 489.707 251.203C487.666 250.789 486.803 249.032 486.803 249.032C486.629 248.663 486.301 248.393 485.908 248.288C485.515 248.181 485.095 248.252 484.76 248.482C475.288 254.952 466.887 252.344 462.23 249.787C467.11 249.423 469.964 246.999 472.387 243.902C475.179 240.328 477.267 235.681 481.839 232.684C486.086 229.899 490.455 230.598 493.76 231.956C497.175 233.358 499.498 235.475 499.498 235.475C499.792 235.746 500.19 235.875 500.59 235.833C500.989 235.79 501.349 235.576 501.581 235.25C502.997 233.24 505.423 232.21 507.853 232.09C510.269 231.969 512.726 232.744 514.224 234.499C516.978 237.722 517.145 243.223 517.134 244.813Z" fill="black"/>
<path fill-rule="evenodd" clip-rule="evenodd" d="M519.145 255.198L524.016 252.772C524.704 252.428 524.985 251.589 524.641 250.899C524.298 250.211 523.46 249.929 522.77 250.273L517.901 252.699C517.211 253.043 516.93 253.88 517.274 254.57C517.618 255.26 518.457 255.542 519.145 255.198Z" fill="black"/>
<path fill-rule="evenodd" clip-rule="evenodd" d="M490.536 261.239C490.536 261.239 480.899 272.232 479.686 274.351C478.598 276.254 479.476 279.063 481.432 280.026C482.676 280.64 484.423 280.651 486.326 278.923C489.685 275.874 495.632 266.639 495.632 266.639C496.047 265.992 495.858 265.127 495.21 264.71C494.562 264.294 493.698 264.484 493.28 265.132C493.28 265.132 487.648 273.951 484.45 276.855C483.726 277.511 483.139 277.755 482.665 277.522C482.049 277.219 481.768 276.337 482.109 275.736C483.282 273.688 492.633 263.082 492.633 263.082C493.142 262.503 493.084 261.621 492.505 261.112C491.927 260.605 491.045 260.661 490.536 261.239Z" fill="black"/>
<path fill-rule="evenodd" clip-rule="evenodd" d="M488.585 276.28C488.585 276.28 498.852 280.03 503.05 269.717C503.341 269.002 502.997 268.187 502.284 267.897C501.569 267.606 500.754 267.95 500.464 268.663C497.291 276.464 489.539 273.656 489.539 273.656C488.815 273.393 488.013 273.768 487.75 274.492C487.486 275.215 487.859 276.017 488.585 276.28Z" fill="black"/>
<path d="M484.1 263.323C484.801 263.323 485.369 262.755 485.369 262.054C485.369 261.353 484.801 260.785 484.1 260.785C483.399 260.785 482.831 261.353 482.831 262.054C482.831 262.755 483.399 263.323 484.1 263.323Z" fill="black"/>
<path d="M498.639 260.206C499.34 260.206 499.908 259.638 499.908 258.937C499.908 258.236 499.34 257.668 498.639 257.668C497.938 257.668 497.37 258.236 497.37 258.937C497.37 259.638 497.938 260.206 498.639 260.206Z" fill="black"/>
<path fill-rule="evenodd" clip-rule="evenodd" d="M641.772 183.741L627.896 209.353L626.819 211.483L639.851 218.171C639.851 218.171 647.422 223.062 652.715 216.56C658.008 210.059 660.286 203.102 660.286 203.102C660.286 203.102 663.524 195.715 655.886 191.352C654.524 190.567 649.343 187.779 641.772 183.741Z" fill="white"/>
<path fill-rule="evenodd" clip-rule="evenodd" d="M642.419 182.509C641.749 182.148 640.9 182.401 640.543 183.076L626.669 208.688C626.662 208.7 626.656 208.711 626.651 208.723L625.572 210.852C625.226 211.537 625.497 212.374 626.18 212.725L639.158 219.39C640.007 219.906 648.069 224.474 653.809 217.443C658.99 211.067 661.38 204.264 661.603 203.591C661.916 202.802 664.886 194.896 656.578 190.14C655.193 189.353 650.012 186.558 642.419 182.509ZM642.329 185.626C649.23 189.3 653.898 191.824 655.193 192.563C661.692 196.279 659.012 202.544 659.012 202.544C658.99 202.585 658.99 202.627 658.968 202.669C658.968 202.669 656.757 209.392 651.642 215.679C647.086 221.247 640.61 216.999 640.61 216.999C640.565 216.974 640.52 216.95 640.476 216.929L628.69 210.875L629.133 210.001L642.329 185.626Z" fill="black"/>
<path fill-rule="evenodd" clip-rule="evenodd" d="M633.889 179.542L618.354 207.137L626.819 211.483L627.895 209.353L641.771 183.741L633.889 179.542Z" fill="white"/>
<path fill-rule="evenodd" clip-rule="evenodd" d="M634.544 178.31C633.877 177.953 633.046 178.196 632.673 178.857L617.138 206.452C616.953 206.783 616.91 207.175 617.02 207.539C617.127 207.902 617.379 208.205 617.719 208.379L626.181 212.724C626.511 212.894 626.895 212.925 627.251 212.81C627.603 212.696 627.896 212.445 628.063 212.113L629.133 210.001L643 184.405C643.179 184.079 643.223 183.694 643.112 183.338C643 182.982 642.754 182.684 642.419 182.509L634.544 178.31ZM634.437 181.415L639.873 184.312L626.67 208.688C626.663 208.699 626.656 208.711 626.652 208.722L626.207 209.6L620.282 206.558L634.437 181.415Z" fill="black"/>
</svg>
